<svg version="1.1" xmlns="http://www.w3.org/2000/svg" xmlns:xlink="http://www.w3.org/1999/xlink" x="0px" y="0px"
	 viewBox="0 0 512 512" style="enable-background:new 0 0 512 512;" xml:space="preserve">
<style type="text/css">
	.st0-e{fill:#EEEEEE;}
	.st1-e{fill:#2FBECC;}
	.st2-e{fill:#029400;}
</style>
<g id="Layer_3-e">
	<circle class="st0-e" cx="256" cy="256" r="256"/>
</g>
<g id="Layer_4-e">
	<circle class="st1-e" cx="255.8" cy="255.7" r="161.4"/>
</g>
<g id="Layer_5-e">
	<path class="st2-e" d="M236.6,96.1c-11.1,1.5-22.2,3.2-32.6,7.9c-3,1-6,1.8-8.9,3c-24,9.9-44.8,24.5-61.4,44.7
		c4.6,5.9,8.9,12,13.7,17.8c11.3,13.5,24.9,23.5,42.5,27.2c2.4,0.5,5.4,1.4,6.8-1.3c1.4-2.8-1.2-4.5-3.1-6.1
		c-1.8-1.5-3.8-2.7-5.8-3.9c-6-3.5-11.2-7.7-15.9-12.8c-9-9.8-7.9-19.8,3.1-27.5c7.6-5.4,12.5-4.2,16.3,4.2c1.6,3.4,3.6,3.7,6.1,1
		c2.2-2.4,3.4-5.3,4.6-8.3c2-5,4.8-9.4,8.1-13.7c7.4-9.7,16.4-17.8,26-25.4c0,0,0,0,0,0c0.7-0.3,1.3-0.6,2-0.9c3-2.2,6-4.5,9-6.7
		C243.5,95.5,240,95.6,236.6,96.1z"/>
	<path class="st2-e" d="M289.9,254c-0.6,21.4-11.8,37.2-26.9,51c-4.1,3.7-9,6.3-12.9,10.3c-9.1,9.5-10.8,21.5-4.3,33
		c1,1.7,2,3.5,2.8,5.3c0.8,1.8,2.4,3.8,0.9,5.6c-1.7,1.9-3.7,0-5.4-0.7c-14.8-6.3-22.1-17.7-21.8-33.7c0.1-7.5,0.6-15,1.7-22.4
		c2.7-19.2-4.1-34.8-16.8-48.7c-7.1-7.7-13.1-16.1-13.6-27.1c-0.5-9.6,1.7-18.6,7.6-26.3c5.6-7.3,13.3-9.6,22.2-7.7
		c8.8,1.8,16.6,6,24,10.8c10.7,7,20.7,15.2,30.6,23.2C286.6,233.7,290.3,243,289.9,254z"/>
	<path class="st2-e" d="M407.3,200.7c-8.7-23.6-22.1-44.2-40.4-61.5c-10.7-10.1-22.1-19.1-35.6-25.2c-5.6,2.6-10.6,6.1-15.3,10
		c0,0.3-0.1,0.6-0.1,0.9c-4.4,3.7-7.6,8.4-11.2,12.7c-8.5,9.9-8.7,20.3-2,31.3c9.4,15.4,20.8,29.2,33.5,42
		c14.3,14.4,30.8,15.2,48.8,10.2c0.3,0.1,0.7,0.2,1,0.2c9.4-2,17.4-6.4,23.1-14.4C408.5,204.8,408.1,202.7,407.3,200.7z"/>
</g>
</svg>
