<?xml version="1.0" encoding="UTF-8"?>
<svg width="39px" height="65px" viewBox="0 0 39 65" version="1.1" xmlns="http://www.w3.org/2000/svg" xmlns:xlink="http://www.w3.org/1999/xlink">
    <!-- Generator: Sketch 40.3 (33839) - http://www.bohemiancoding.com/sketch -->
    <title>1308001441853739087google maps pin</title>
    <desc>Created with Sketch.</desc>
    <defs></defs>
    <g id="Page-1" stroke="none" stroke-width="1" fill="none" fill-rule="evenodd">
        <g id="1308001441853739087google-maps-pin" transform="translate(1.000000, 1.000000)">
            <g id="Group" stroke="#000000" stroke-width="1.31050767" fill="#FFFFFF">
                <path d="M18.5508883,59.9868595 C17.1809341,53.2465643 14.7655091,47.6374498 11.839894,42.4388076 C9.66982808,38.5826564 7.15591309,35.023353 4.82989589,31.2839787 C4.05342598,30.0356671 3.38332665,28.7169067 2.63721299,27.4213813 C1.14533906,24.8309327 -0.0642464183,21.8274616 0.0126160458,17.931464 C0.0877115568,14.1248642 1.18615568,11.0713459 2.77012321,8.57472255 C5.37528367,4.46840614 9.73902197,1.10167651 15.5941041,0.21690673 C20.3813457,-0.506493506 24.8697249,0.715678867 28.0526437,2.58106257 C30.6535989,4.10543093 32.6677841,6.14164109 34.1988138,8.54139315 C35.7968462,11.0460921 36.8972693,14.0051476 36.989575,17.8648406 C37.0368233,19.8422904 36.7137536,21.6735301 36.2586218,23.1925148 C35.7980124,24.7300236 35.057235,26.015242 34.3981614,27.3880519 C33.1116074,30.0678276 31.4986266,32.5231877 29.8798854,34.98 C25.0583295,42.297804 20.5328443,49.7607556 18.5508883,59.9868595 L18.5508883,59.9868595 Z" id="Shape"></path>
            </g>
            <g id="bestek" transform="translate(5.689589, 4.994097)" fill="#000000">
                <path d="M13.5870945,7.4888763 C13.5870945,7.4888763 13.8079004,6.58699847 14.7173486,5.86569684 C14.8438666,5.76517608 15.1517537,5.5533 15.1811812,5.30109523 C15.2124103,5.02220531 15.2100081,4.53765915 15.1933926,3.37274197 C15.2720659,4.41205837 15.3345242,5.25133645 15.3535419,5.57155826 C15.3601481,5.6784995 15.3046964,5.74511206 15.2066049,5.77741514 C14.8718927,5.8859615 14.0777521,6.26456961 13.5870945,7.4888763 Z M12.3347265,26.0912353 C12.3347265,26.0912353 12.2420401,27.128144 12.3615515,27.6738854 C12.4490331,28.1427816 12.6338054,28.6435796 13.2431738,29.4118311 C12.360951,28.6939403 12.1387437,27.6616464 12.2062067,26.9170705 C12.2630597,26.2880633 12.3347265,26.0912353 12.3347265,26.0912353 Z M14.8937131,-3.1883942 L14.8570789,-3.20043262 L14.8222464,-3.1883942 L14.4571059,3.9564044 C14.4571059,3.9564044 14.4533023,4.06956549 14.3429995,4.06956549 C14.2328968,4.06956549 14.2312953,3.95720696 14.2312953,3.95720696 L13.8279191,-3.18518396 L13.7900838,-3.2008339 L13.751648,-3.18518396 L13.3632858,3.95459864 C13.3632858,3.95459864 13.3606833,4.06956549 13.2597892,4.06956549 C13.1588952,4.06956549 13.1536903,3.95499992 13.1536903,3.95499992 L12.7657285,-3.18498332 L12.7280934,-3.19822557 L12.6894573,-3.18518396 L12.285881,3.95760825 C12.285881,3.95760825 12.2810765,4.06956549 12.174377,4.06956549 C12.0676775,4.06956549 12.0598702,3.9564044 12.0598702,3.9564044 L11.6949298,-3.1883942 L11.6592966,-3.20043262 L11.6236634,-3.1883942 C11.6236634,-3.1883942 11.0911667,4.52762714 11.0235036,5.65983996 C11.0168975,5.76698184 11.0723492,5.83379504 11.1702405,5.86589748 C11.5049527,5.97484512 12.2992935,6.40080433 12.7897509,7.6245091 C13.3310557,8.88653615 12.249447,23.7989206 11.9573746,27.0284258 C11.8851072,27.8311873 12.1957969,28.9676136 13.2597892,29.6849024 C14.3237815,28.9676136 14.6338707,27.8311873 14.561203,27.0284258 C14.2691306,23.7989206 13.1863207,8.88653615 13.7278257,7.6245091 C14.218083,6.40080433 15.0128242,5.97484512 15.3469358,5.86589748 C15.4452274,5.83379504 15.500479,5.76698184 15.4938728,5.65983996 C15.4262097,4.52762714 14.8937131,-3.1883942 14.8937131,-3.1883942 Z" id="Fill-11" transform="translate(13.258689, 13.242034) rotate(-45.000000) translate(-13.258689, -13.242034) "></path>
                <path d="M14.2099321,27.630748 C14.3294436,27.0850066 14.2371575,26.0480979 14.2371575,26.0480979 C14.2371575,26.0480979 14.3086242,26.2451266 14.3658776,26.8741337 C14.4323396,27.6187096 14.2109331,28.6510036 13.3287103,29.3684931 C13.9380786,28.6002416 14.1230511,28.0998449 14.2099321,27.630748 Z M12.4214642,12.2592987 C12.4214642,12.2592987 12.535971,12.3670425 12.7021259,12.3670425 L13.8103595,12.3678451 C13.9496894,12.3678451 13.9434836,12.5626667 13.8059554,12.5626667 L12.6831082,12.5626667 C12.475915,12.5626667 12.4214642,12.3437682 12.4214642,12.2592987 Z M12.4498907,-1.88684076 C12.945553,-2.8625542 13.4400141,-3.19882723 13.7881388,-3.04272913 C13.423799,-3.06138867 13.1185143,-2.76745073 12.8542678,-2.40890664 C12.4921301,-1.91794 12.2318874,-1.31561802 12.2318874,-1.31561802 C12.2318874,-1.31561802 12.2501044,-1.49318463 12.4498907,-1.88684076 Z M13.9981346,12.3008312 C14.4729775,5.88736625 14.0609932,-1.15972057 14.1352625,-2.29213403 C14.2143362,-3.50961894 13.2320201,-3.68999451 12.3862313,-2.16392492 C10.9913304,0.352705492 10.4770508,8.1269125 12.2507049,12.1040031 C12.2787311,12.1981034 12.2977488,12.2364257 12.3173671,12.3259112 C12.7285506,14.2105249 12.2709238,23.9459902 11.9932648,27.0284261 C11.9197963,27.8307863 12.2306863,28.9676139 13.2944784,29.6849027 C14.3592714,28.9676139 14.6689602,27.8311876 14.5962925,27.0284261 C14.446753,25.3739467 14.0772084,18.6103645 13.9981346,12.3008312 Z" id="Fill-14" transform="translate(12.862151, 13.213974) rotate(45.000000) translate(-12.862151, -13.213974) "></path>
            </g>
        </g>
    </g>
</svg>