<svg version="1.1" xmlns="http://www.w3.org/2000/svg" xmlns:xlink="http://www.w3.org/1999/xlink" x="0px" y="0px"
	 viewBox="0 0 256 256" style="enable-background:new 0 0 256 256;" xml:space="preserve">
<style type="text/css">
	.st0{display:none;}
	.st1{fill:#EEEEEE;}
	.st2{fill:#C70000;}
</style>
<g id="Layer_3">
	<circle class="st1" cx="128" cy="128" r="128"/>
</g>
<g id="Layer_1_copy">
	<path class="st2" d="M143,165.3c-0.9-8.4-1.7-16.9-2.8-25.3c-0.2-1.7-1.4-3.4-2.2-5c-1.2,1.6-2.3,3.2-3.4,4.8
		c-0.4,0.5-0.5,1.2-1.3,3c-0.5-9.6-7-7-11.8-7.1c-3.6-0.1-5.3-0.7-5.7-4.8c-0.8-7.3-2.3-14.4-3.8-21.6c-0.3-1.5-1.8-2.9-2.7-4.3
		c-0.9,1.4-2.2,2.8-2.5,4.3c-1.9,11.4-3.5,22.8-5.6,34.2c-2.5-12.4-2.1-25.3-6.3-37.6c-5,9.7-5.2,20.5-8.2,30.7
		c-1.5-2.4-2.9-4.8-5.1-8.4c-2.9,10.9-10.6,7-16.3,7.2c-12.1,0.5-11.9,0.1-13.4-11.9c-1.2-10.1,0-19.8,3.6-29.4
		c5.2-13.9,15.9-19.9,29.9-21.1c16.1-1.4,28.7,5.5,39.3,17c1,1.1,1.7,2.4,2.6,3.8c3.4-3.4,5.9-6,8.6-8.5
		C148.3,74,162.8,70.4,179,74.5c16.2,4.1,22.5,16.7,24.4,31.3c1.1,8.5-0.5,17.5-1.3,26.2c-0.1,1.3-2.7,3.2-4.2,3.4
		c-5.1,0.4-10.3,0-15.5,0.2c-2.9,0.1-4.1-1.1-4.7-3.8c-2-8.6-4.2-17.1-6.5-25.6c-0.5-1.9-2-3.5-3-5.2c-1,1.9-2.6,3.6-3,5.6
		c-1.4,7-2.4,14-3.7,22.3c-1.3-2.9-1.8-4.7-2.9-6.3c-1-1.5-2.4-2.8-3.6-4.2c-0.9,1.6-2.3,3.1-2.7,4.9c-3,14-5.7,28-8.6,42
		C143.5,165.3,143.3,165.3,143,165.3z"/>
	<path class="st2" d="M101.8,168.2c3.9-14.9,4.5-30.4,7.7-46.1c0.8,4.7,1.7,8.7,2.2,12.8c0.5,3.7,2.3,5.6,5.9,5.1
		c4.7-0.6,6.2,1.5,6.2,5.9c0,1.4,1.3,2.8,2,4.2c1.3-0.8,2.5-1.6,4.1-2.7c1.7,0.8,0.3,8.9,6.5,3.5c2.3,11.2,1.4,23,4.5,34.2
		c0.6,0.1,1.3,0.2,1.9,0.3c0.7-1.6,1.8-3.1,2.1-4.8c3.5-16.7,6.9-33.5,10.6-51.9c1.6,3.5,2.4,5.9,3.6,8c0.7,1.2,2,1.9,3,2.9
		c0.8-1.2,2.1-2.2,2.3-3.5c1.3-6.7,2.3-13.4,4.1-20.3c1.6,6.4,3.5,12.7,4.9,19.1c0.8,3.8,2.7,5.3,6.5,5.2c6.1-0.2,12.3,0,19.3,0
		c-0.8,2.2-1.2,3.9-1.9,5.4c-13.4,29.7-36.1,48.9-66.8,59c-1.5,0.5-3.4,0.7-4.8,0.3c-32.2-10.1-55.4-30.4-68.8-61.5
		c-0.2-0.5-0.3-1-0.4-1.4c0-0.3,0-0.6,0.1-1.4c8.4,0,16.8,0,25.5,0c0.6,1.5,1.3,3.4,2.2,5.1c0.6,1,1.7,1.8,2.6,2.7
		c0.9-1.1,2.3-2,2.6-3.2c1.3-5.8,2.3-11.7,4.4-17.6c0.5,4.5,1.1,9,1.5,13.5c0.8,7.6,1.4,15.2,2.2,22.9c0.2,1.6,1.2,3.1,1.8,4.7
		C100.5,168.2,101.2,168.2,101.8,168.2z"/>
</g>
</svg>
