<svg xmlns="http://www.w3.org/2000/svg" viewBox="0 0 808 810"><style>.st0{fill:url(#SVGID_1_);} .st1{fill:none;stroke:#FFFFFF;stroke-width:80;stroke-miterlimit:10;} .st2{fill:none;stroke:#017F00;stroke-width:25;stroke-miterlimit:10;} .st3{fill:#017F00;} .st4{fill:#F7931E;} .st5{fill:#ED7532;}</style><g id="Layer_10_copy_2"><linearGradient id="SVGID_1_" gradientUnits="userSpaceOnUse" x1="722.073" y1="309.158" x2="92.031" y2="501.38"><stop offset="0" stop-color="#8CC63F"/><stop offset="1" stop-color="#009245"/></linearGradient><circle class="st0" cx="407.1" cy="405.3" r="329.3"/></g><circle class="st1" cx="404.7" cy="404.6" r="361.9" id="white_overlay_circle"/><circle class="st2" cx="404.7" cy="404.6" r="334" id="inner_circle"/><g id="Layer_8"><g id="vegetarian-mark"><g id="Group_1_"><path id="Shape_1_" class="st3" d="M478.945 147.753c-3.7 1-11.5 2.7-17.3 3.9-14.8 2.9-17.1 3.8-23.7 8.7-9.3 7-15.9 20.4-15.8 32.7 0 4.7.7 8 1.5 7.1.2-.2.8-1.6 1.4-3 2.8-6.8 11-17.1 17.9-22.7 3.5-2.9 10.7-5.7 10.7-4.2 0 .5-2.4 3.6-5.3 6.6-2.7 2.9-3.6 4.1-8.7 11.5-5.3 7.8-12.2 21.7-16.8 34.1-4.5 12-7.8 21.6-10 28.8-3.7 12.3-7.1 22-7.7 22.2-.7.3-2.8-6.3-7-22.7-6.6-25.6-9.4-34.5-16.1-50.5-4.6-10.9-10.7-19.7-23-33.1-6.8-7.4-16.4-14.5-22.2-16.5-3.8-1.3-4.1-.6-1.2 2.5 13.4 15.2 21.2 26.4 29.4 42.4 6.9 13.6 11.7 27.1 20.4 58.1 2.2 7.9 7.1 28.1 8.6 36 1.7 8.7 3.7 17.3 4.2 18.6.2.4.9 1 1.6 1.2 1.6.4 9.1.4 10.7 0 2.4-.7 2.9-2.6 6.2-24.4 2.2-14.7 4.1-23.5 7.9-36.7 6.4-22.4 13.2-38.8 17.3-41.5.6-.4 3.5-1.1 6.6-1.6 12-2 21.6-7.3 28.4-15.7 4.6-5.6 5.8-9.8 6.9-23.6.6-7.3 1-9.4 2.3-13.8.9-2.9 1.5-5.4 1.4-5.8-.4-.7-1.1-.6-8.6 1.4z"/></g></g><g id="Group"><path id="Shape" class="st4" d="M405.2 668.1c-8.5-41.6-23.4-76.2-41.4-108.3-13.4-23.8-28.9-45.8-43.3-68.8-4.8-7.7-8.9-15.8-13.5-23.8-9.2-16-16.7-34.5-16.2-58.6.5-23.5 7.2-42.3 17-57.7 16.1-25.3 43-46.1 79.1-51.6 29.5-4.5 57.2 3.1 76.9 14.6 16 9.4 28.5 22 37.9 36.8 9.9 15.5 16.6 33.7 17.2 57.5.3 12.2-1.7 23.5-4.5 32.9-2.8 9.5-7.4 17.4-11.5 25.9-7.9 16.5-17.9 31.7-27.9 46.8-29.6 45.1-57.6 91.2-69.8 154.3z"/></g><circle class="st5" cx="406.5" cy="403.5" r="53.5"/></g></svg>