<svg version="1.1" xmlns="http://www.w3.org/2000/svg" xmlns:xlink="http://www.w3.org/1999/xlink" x="0px" y="0px"
	 viewBox="0 0 1280 1280" style="enable-background:new 0 0 1280 1280;" xml:space="preserve">
<style type="text/css">
	.st0{fill:url(#SVGID_1_);}
	.st1{fill:none;stroke:#FFFFFF;stroke-width:80;stroke-miterlimit:10;}
	.st2{fill:none;stroke:#017F00;stroke-width:25;stroke-miterlimit:10;}
	.st3{fill:#017F00;}
	.st4{fill:#F7931E;}
	.st5{fill:#ED7532;}
</style>
<g id="Layer_10_copy_2">
	<linearGradient id="SVGID_1_" gradientUnits="userSpaceOnUse" x1="951.0728" y1="540.1578" x2="321.031" y2="732.3799">
		<stop  offset="0" style="stop-color:#8CC63F"/>
		<stop  offset="1" style="stop-color:#009245"/>
	</linearGradient>
	<circle class="st0" cx="636.1" cy="636.3" r="329.3"/>
</g>
<g id="white_overlay_circle">
	<circle class="st1" cx="633.7" cy="635.6" r="361.9"/>
</g>
<g id="inner_circle">
	<circle class="st2" cx="633.7" cy="635.6" r="334"/>
</g>
<g id="Layer_8">
	<g id="vegetarian-mark" transform="translate(7.244508, 10.342385)">
		
			<g id="Group_1_" transform="translate(11.520535, 12.255963) scale(1, -1) translate(-11.520535, -12.255963) translate(0.000000, 0.000945)">
			<path id="Shape_1_" class="st3" d="M700.7-343.9c-3.7-1-11.5-2.7-17.3-3.9c-14.8-2.9-17.1-3.8-23.7-8.7
				c-9.3-7-15.9-20.4-15.8-32.7c0-4.7,0.7-8,1.5-7.1c0.2,0.2,0.8,1.6,1.4,3c2.8,6.8,11,17.1,17.9,22.7c3.5,2.9,10.7,5.7,10.7,4.2
				c0-0.5-2.4-3.6-5.3-6.6c-2.7-2.9-3.6-4.1-8.7-11.5c-5.3-7.8-12.2-21.7-16.8-34.1c-4.5-12-7.8-21.6-10-28.8
				c-3.7-12.3-7.1-22-7.7-22.2c-0.7-0.3-2.8,6.3-7,22.7c-6.6,25.6-9.4,34.5-16.1,50.5c-4.6,10.9-10.7,19.7-23,33.1
				c-6.8,7.4-16.4,14.5-22.2,16.5c-3.8,1.3-4.1,0.6-1.2-2.5c13.4-15.2,21.2-26.4,29.4-42.4c6.9-13.6,11.7-27.1,20.4-58.1
				c2.2-7.9,7.1-28.1,8.7-36c1.7-8.7,3.7-17.3,4.2-18.6c0.2-0.4,0.9-1,1.6-1.2c1.6-0.4,9.1-0.4,10.7,0c2.4,0.7,2.9,2.6,6.2,24.4
				c2.2,14.7,4.1,23.5,7.9,36.7c6.4,22.4,13.2,38.8,17.3,41.5c0.6,0.4,3.5,1.1,6.6,1.6c12,2,21.6,7.3,28.4,15.7
				c4.6,5.6,5.8,9.8,6.9,23.6c0.6,7.3,1,9.4,2.3,13.8c0.9,2.9,1.5,5.4,1.4,5.8C708.9-341.8,708.2-341.9,700.7-343.9L700.7-343.9z"/>
		</g>
	</g>
	<g id="Group">
		<path id="Shape" class="st4" d="M634.2,899.1c-8.5-41.6-23.4-76.2-41.4-108.3c-13.4-23.8-28.9-45.8-43.3-68.8
			c-4.8-7.7-8.9-15.8-13.5-23.8c-9.2-16-16.7-34.5-16.2-58.6c0.5-23.5,7.2-42.3,17-57.7c16.1-25.3,43-46.1,79.1-51.6
			c29.5-4.5,57.2,3.1,76.9,14.6c16,9.4,28.5,22,37.9,36.8c9.9,15.5,16.6,33.7,17.2,57.5c0.3,12.2-1.7,23.5-4.5,32.9
			c-2.8,9.5-7.4,17.4-11.5,25.9c-7.9,16.5-17.9,31.7-27.9,46.8C674.4,789.9,646.4,836,634.2,899.1L634.2,899.1z"/>
	</g>
	<circle class="st5" cx="635.5" cy="634.5" r="53.5"/>
</g>
</svg>
