<svg xmlns="http://www.w3.org/2000/svg" viewBox="0 0 1280 1280"><g stroke="#000" stroke-miterlimit="10"><circle fill="#FFF" stroke-width="25" cx="634.7" cy="622.6" r="483"/><circle fill="none" stroke-width="10" cx="634.7" cy="634.6" r="334"/></g><linearGradient id="a" gradientUnits="userSpaceOnUse" x1="573.337" y1="589.237" x2="572.767" y2="589.227" gradientTransform="rotate(-17.992 631.33 666.223)"><stop offset="0" stop-color="#8CC63F"/><stop offset="1" stop-color="#009245"/></linearGradient><path fill="url(#a)" d="M552.2 610.8c-.1.2-.2.3-.3.3.1 0 .2-.1.3-.3z"/><linearGradient id="b" gradientUnits="userSpaceOnUse" x1="586.647" y1="585.137" x2="576.579" y2="584.956" gradientTransform="rotate(-17.992 631.33 666.223)"><stop offset="0" stop-color="#8CC63F"/><stop offset="1" stop-color="#009245"/></linearGradient><path fill="url(#b)" d="M555.1 607.6c.9-1 2.1-2.3 3.4-3.8.6-.7 1.2-1.3 1.7-1.9-1.6 1.8-3.5 3.9-5.1 5.7z"/><linearGradient id="c" gradientUnits="userSpaceOnUse" x1="572.817" y1="589.358" x2="572.722" y2="589.356" gradientTransform="rotate(-17.992 631.33 666.223)"><stop offset="0" stop-color="#8CC63F"/><stop offset="1" stop-color="#009245"/></linearGradient><path fill="url(#c)" d="M551.9 611.1c0 .1 0 .1 0 0z"/><linearGradient id="d" gradientUnits="userSpaceOnUse" x1="575.182" y1="588.748" x2="573.087" y2="588.71" gradientTransform="rotate(-17.992 631.33 666.223)"><stop offset="0" stop-color="#8CC63F"/><stop offset="1" stop-color="#009245"/></linearGradient><path fill="url(#d)" d="M553.3 609.6c-.5.5-.8.9-1.1 1.2.3-.3.6-.7 1.1-1.2z"/><linearGradient id="e" gradientUnits="userSpaceOnUse" x1="584.139" y1="583.002" x2="583.549" y2="582.991" gradientTransform="rotate(-17.992 631.33 666.223)"><stop offset="0" stop-color="#8CC63F"/><stop offset="1" stop-color="#009245"/></linearGradient><path fill="url(#e)" d="M560.2 601.9l.3-.3c-.1.1-.1.2-.3.3z"/><linearGradient id="f" gradientUnits="userSpaceOnUse" x1="507.085" y1="648.589" x2="504.781" y2="648.547" gradientTransform="rotate(-17.992 631.33 666.223)"><stop offset="0" stop-color="#8CC63F"/><stop offset="1" stop-color="#009245"/></linearGradient><path fill="url(#f)" d="M506.7 687c-.3.8-.5 1.7-.8 2.5.3-.9.6-1.7.8-2.5z"/><linearGradient id="g" gradientUnits="userSpaceOnUse" x1="577.816" y1="587.718" x2="574.418" y2="587.657" gradientTransform="rotate(-17.992 631.33 666.223)"><stop offset="0" stop-color="#8CC63F"/><stop offset="1" stop-color="#009245"/></linearGradient><path fill="url(#g)" d="M555 607.7c-.7.7-1.2 1.4-1.7 1.9.4-.5 1-1.1 1.7-1.9z"/><linearGradient id="h" gradientUnits="userSpaceOnUse" x1="577.022" y1="586.988" x2="576.768" y2="586.983" gradientTransform="rotate(-17.992 631.33 666.223)"><stop offset="0" stop-color="#8CC63F"/><stop offset="1" stop-color="#009245"/></linearGradient><path fill="url(#h)" d="M555.1 607.6l-.1.1.1-.1z"/><linearGradient id="i" gradientUnits="userSpaceOnUse" x1="587.671" y1="581.72" x2="585.073" y2="581.673" gradientTransform="rotate(-17.992 631.33 666.223)"><stop offset="0" stop-color="#8CC63F"/><stop offset="1" stop-color="#009245"/></linearGradient><path fill="url(#i)" d="M561.5 600.5c.5-.5.9-1 1.3-1.5-.4.5-.8.9-1.3 1.5z"/><linearGradient id="j" gradientUnits="userSpaceOnUse" x1="588.71" y1="580.288" x2="588.312" y2="580.281" gradientTransform="rotate(-17.992 631.33 666.223)"><stop offset="0" stop-color="#8CC63F"/><stop offset="1" stop-color="#009245"/></linearGradient><path fill="url(#j)" d="M563.9 597.8c.1-.1.1-.2.2-.2l-.2.2z"/><linearGradient id="k" gradientUnits="userSpaceOnUse" x1="589.052" y1="580.122" x2="588.57" y2="580.113" gradientTransform="rotate(-17.992 631.33 666.223)"><stop offset="0" stop-color="#8CC63F"/><stop offset="1" stop-color="#009245"/></linearGradient><path fill="url(#k)" d="M564.1 597.6c.1-.1.2-.2.2-.3 0 .1-.1.2-.2.3z"/><linearGradient id="l" gradientUnits="userSpaceOnUse" x1="585.729" y1="582.555" x2="583.892" y2="582.522" gradientTransform="rotate(-17.992 631.33 666.223)"><stop offset="0" stop-color="#8CC63F"/><stop offset="1" stop-color="#009245"/></linearGradient><path fill="url(#l)" d="M560.5 601.6c.3-.4.6-.7.9-1-.2.2-.5.6-.9 1z"/><linearGradient id="m" gradientUnits="userSpaceOnUse" x1="589.162" y1="579.977" x2="588.895" y2="579.972" gradientTransform="rotate(-17.992 631.33 666.223)"><stop offset="0" stop-color="#8CC63F"/><stop offset="1" stop-color="#009245"/></linearGradient><path fill="url(#m)" d="M564.4 597.3c.1-.2.2-.2 0 0z"/><linearGradient id="n" gradientUnits="userSpaceOnUse" x1="587.754" y1="581.034" x2="586.844" y2="581.018" gradientTransform="rotate(-17.992 631.33 666.223)"><stop offset="0" stop-color="#8CC63F"/><stop offset="1" stop-color="#009245"/></linearGradient><path fill="url(#n)" d="M562.8 599c.2-.2.3-.4.5-.5-.2.2-.3.4-.5.5z"/><linearGradient id="o" gradientUnits="userSpaceOnUse" x1="588.552" y1="580.508" x2="587.814" y2="580.495" gradientTransform="rotate(-17.992 631.33 666.223)"><stop offset="0" stop-color="#8CC63F"/><stop offset="1" stop-color="#009245"/></linearGradient><path fill="url(#o)" d="M563.5 598.2c.1-.2.3-.3.4-.4-.1.1-.2.3-.4.4z"/><linearGradient id="p" gradientUnits="userSpaceOnUse" x1="588.01" y1="580.752" x2="587.456" y2="580.742" gradientTransform="rotate(-17.992 631.33 666.223)"><stop offset="0" stop-color="#8CC63F"/><stop offset="1" stop-color="#009245"/></linearGradient><path fill="url(#p)" d="M563.3 598.5l.3-.3-.3.3z"/><linearGradient id="q" gradientUnits="userSpaceOnUse" x1="1054.562" y1="643.745" x2="415.449" y2="632.263" gradientTransform="rotate(-17.992 631.33 666.223)"><stop offset="0" stop-color="#8CC63F"/><stop offset="1" stop-color="#009245"/></linearGradient><path fill="url(#q)" d="M823.5 524.4C765.9 457 674.2 424 588.1 449.5 498.5 476 427.7 563.8 434.2 659.2c5.8 73.6 53 135.3 122.6 160.5 105.6 35 205.3-33.4 228.7-90.7 21.1-53.2 9.6-111.6-29.8-151.7-25.2-23.6-54.9-38.1-90.6-36-43.5 2.5-78.2 31.1-106.4 62.4-21.9 24.4-42 51.8-51.8 83.2 15.4-45.7 70.9-30 112.9-21.2 37.2 7.8 87.3.5 113-41.6-29.7-28.2-79.9-13.5-120.6-13.9 34.3-16.2 90.7-28.3 125.2-5.6 5.2 4.7 9.7 10.4 13.2 17.2 15.5 36.2 13.5 81.3-12.1 112.5-24 29.3-103.3 87.2-198.8 20.4-36-33.8-60.7-78.5-52.9-127.6 12.4-78 80.4-139.9 156.2-154.9 25.9-5.2 51.9-4.8 77.2 0-3.1-.8-6.3-1.5-9.5-2.1 40.9 8.2 79.8 28 112.8 54.3zm-213.4-49.2c-2.4.8-4.7 1.5-7 2.4 2.3-.9 4.6-1.7 7-2.4zm128.6 130.4c-.5-.4-1-.7-1.5-1 .5.4 1 .7 1.5 1zm4.4 3.4c-1.4-1.2-2.8-2.3-4.3-3.3 1.4 1 2.9 2.1 4.3 3.3zm3.2 2.9c.6.6 1.2 1.2 1.8 1.9-.6-.6-1.2-1.3-1.8-1.9zm-3.1-2.8c.4.3.8.7 1.2 1-.4-.3-.8-.6-1.2-1zm1.6 1.4c.4.3.7.7 1.1 1-.4-.3-.7-.6-1.1-1zm11.7 14.8c-.1-.2-.3-.4-.4-.6.1.1.2.3.4.6zm-1.3-2.1c-.1-.2-.3-.5-.4-.7.1.2.3.5.4.7zm-1.3-2.1c-.1-.2-.3-.4-.4-.6.1.2.2.4.4.6zm-1.7-2.4c-.2-.2-.4-.5-.6-.7.2.2.4.5.6.7zm-1.4-1.7c-.2-.3-.5-.6-.7-.8.3.2.5.5.7.8zm-1.4-1.7c-.3-.3-.5-.6-.8-.9.3.3.6.6.8.9zm-257.2-42.4c-.6 1.1-1.1 2.2-1.6 3.2.5-1.1 1.1-2.1 1.6-3.2zm4.5-8.1c.6-1 1.2-1.9 1.7-2.9-.5 1-1.1 2-1.7 2.9zm3.9-6.2c.8-1.3 1.6-2.5 2.5-3.8-.9 1.3-1.7 2.5-2.5 3.8zm3.4-5.1c2.2-3.2 4.4-6.2 6.8-9.3-2.4 3-4.7 6.1-6.8 9.3zm56.1-54.5c1.2-.8 2.5-1.6 3.8-2.4-1.3.8-2.5 1.6-3.8 2.4zm-9.4 6.5c.6-.4 1.1-.8 1.7-1.2-.5.4-1.1.8-1.7 1.2zm25.2-15.9c1.3-.7 2.6-1.4 3.8-2-1.2.7-2.5 1.4-3.8 2zm61.3-21c.7-.1 1.3-.2 2-.3-.6.1-1.3.2-2 .3zm68.1.6l3.6.6c-1.1-.2-2.4-.4-3.6-.6zm-62-1.5l2.4-.3-2.4.3zm6.1-.7c.9-.1 1.7-.2 2.6-.2-.9 0-1.7.1-2.6.2zm6.1-.5c.9-.1 1.7-.1 2.6-.2-.9.1-1.7.1-2.6.2zm6.1-.3c.9 0 1.7-.1 2.6-.1-.9 0-1.7 0-2.6.1zm6.3-.2h2.4-2.4zm8.1.1c.9 0 1.8.1 2.8.1-.9 0-1.9-.1-2.8-.1zm6 .3c1 .1 2.1.1 3.1.2-1-.1-2.1-.1-3.1-.2zm5.9.5c1.1.1 2.2.2 3.2.3-1-.1-2.1-.2-3.2-.3zm5.9.6c1.1.1 2.2.3 3.3.4-1.1-.1-2.2-.3-3.3-.4zm5.8.8c1.1.2 2.3.3 3.4.5-1.1-.2-2.2-.4-3.4-.5z"/><linearGradient id="r" gradientUnits="userSpaceOnUse" x1="1250.216" y1="448.891" x2="282.51" y2="744.133"><stop offset="0" stop-color="#8CC63F"/><stop offset="1" stop-color="#009245"/></linearGradient><circle fill="url(#r)" cx="636.1" cy="636.3" r="329.3"/><g><circle fill="none" stroke="#FFF" stroke-width="80" stroke-miterlimit="10" cx="633.7" cy="635.6" r="361.9"/></g><g><circle fill="none" stroke="#000" stroke-width="25" stroke-miterlimit="10" cx="633.7" cy="635.6" r="334"/></g><g><path fill="none" d="M294.4 646.6c0 188.1 152.5 340.6 340.6 340.6s340.6-152.5 340.6-340.6"/><path fill="#33AB31" d="M282.2 808.4l8.7 18.9c3.9 8.5 1.8 14.6-6.3 18.3L252.9 860c-8-8.9-14.6-19-19.8-30.5-2.6-5.8-4-11.4-4.1-16.7-.1-5.3 1-10.3 3.2-15 2.3-4.7 5.7-9 10.2-12.9 4.6-3.9 10.2-7.4 16.9-10.4 7.3-3.3 14.2-5.2 20.6-5.5 6.4-.3 12.2.5 17.5 2.4 5.2 1.9 9.8 4.8 13.8 8.7 3.9 3.8 7 8.3 9.3 13.4 4.7 10.5 6.3 21.6 4.7 33.4-1.3.5-2.8.8-4.3.9-1.6.1-3.1 0-4.7-.2s-3.1-.6-4.6-1.1c-1.5-.6-2.8-1.2-4-1.9 1.3-8.7.4-16.4-2.7-23.2-6-13.1-18.1-15.5-36.5-7.2-18.3 8.3-24.4 19.2-18.3 32.6.8 1.9 1.7 3.6 2.7 5.3.9 1.7 2 3.3 3.1 4.8l8.1-3.7c1.9-.8 3.5-1.6 4.9-2.1 1.4-.6 2.6-1.1 3.6-1.4l-2.7-6c-1.6-3.5-2-6.2-1.3-8.1.7-1.9 2.5-3.5 5.3-4.8 2.3-1.3 5.2-2 8.4-2.4zM375 921.6c-2.2 1.9-4.6 3.4-7.1 4.5s-5.1 1.7-7.6 2c-2.5.3-5 .2-7.5-.3s-4.7-1.2-6.7-2.3c1.8 4.6 1 9.8-2.4 15.7l-5.8 10.4c-2.3 4.1-3.3 7.9-3 11.5-2.2.2-4.6-.3-7.3-1.5s-5-3-7.1-5.4c-2.1-2.4-3.1-4.8-2.9-7.4.2-2.5 1.5-5.8 3.9-10l7.3-12.8c1.3-2.5 2-4.8 2-7s-1.1-4.5-3.3-6.9l-3.6-4.1-24.9 22.1c-2.3-1.8-4.8-4.2-7.6-7.4s-4.9-6-6.3-8.4l67.4-59.5 1.3.1c5.2 5.7 9.6 10.4 13.1 14.3 3.5 3.9 6.3 7 8.3 9.2 3.2 3.6 5.7 7.4 7.4 11.1s2.6 7.5 2.7 11.2-.8 7.3-2.5 10.8c-1.6 3.6-4.3 6.9-7.8 10.1zm-19.3-41.5l-19.6 17.3c2.6 3 4.9 5.5 6.9 7.5s3.9 3.4 5.7 4.1c1.8.7 3.7.8 5.5.3 1.8-.5 4-1.7 6.4-3.9 6.5-5.7 6.9-11.7 1.4-17.9-1.3-1.5-2.6-2.9-3.6-4.1-1.1-1.2-2-2.3-2.7-3.3zM385.4 1001.6c-3.9-11.7-1.1-25.2 8.4-40.5 4.1-6.6 8.5-11.9 13.1-16 4.6-4 9.5-6.9 14.4-8.4 5-1.6 10.1-2 15.3-1.1 5.2.8 10.4 2.9 15.6 6.1 5.2 3.2 9.3 7 12.4 11.3 3.1 4.3 5 9.1 5.8 14.3.8 5.2.4 10.8-1.2 16.7-1.6 6-4.4 12.2-8.4 18.7-4.1 6.5-8.4 11.8-13 15.9-4.6 4-9.5 6.9-14.4 8.4-5 1.6-10.1 1.9-15.3 1.1-5.2-.9-10.5-2.9-15.6-6.1-8.6-5.4-14.3-12.2-17.1-20.4zm18.8-9.9c-1.6 7.1.7 12.6 6.8 16.4 3.1 1.9 6.1 2.7 8.9 2.3 2.9-.3 5.6-1.4 8.1-3.1 2.6-1.7 4.9-3.9 7.1-6.6 2.2-2.7 4.2-5.5 5.9-8.3 1.6-2.6 3.4-5.6 5.2-9 1.8-3.3 3.1-6.7 4-10.1s.9-6.6.1-9.8c-.8-3.1-3-5.9-6.8-8.2-3.6-2.2-6.9-3-10-2.4-3.1.7-5.9 2-8.5 4.2-2.6 2.1-5 4.6-7.1 7.5-2.1 2.9-3.9 5.5-5.3 7.8-2.1 3.5-3.9 6.6-5.2 9.6-1.2 3.1-2.3 6.3-3.2 9.7zM588.4 993.4l.7 1.1-20.9 87.7c-3.6 0-7.8-.6-12.5-1.7s-8.8-2.4-12.3-3.7l-9.2-51c-1.2-5.8-2.2-12.5-3-19.9h-.4c-2 12.8-4.5 25.8-7.6 38.9l-6.1 25.7c-2.8-.1-6.1-.6-9.9-1.5-3.8-.9-6.9-1.9-9.4-3l20.9-87.7c3.5 0 7.5.6 12.1 1.7s8.6 2.3 12.1 3.7l9 50.8c1.6 9.4 2.7 16.5 3.3 21.5l.6-.1c1.8-12.2 4.3-25 7.5-38.4l3.8-15.7c1.1-4.5 2.7-7.5 5-9s5.4-1.8 9.5-.8l6.8 1.4zM626.9 1086.3l-1.5-90.6c2.7-.6 6.3-.9 10.6-1 4.3-.1 7.9.1 10.8.6l1.5 90.6c-2.8.6-6.4.9-10.7 1-4.4.1-7.9-.1-10.7-.6zM751.8 976.5l1.1.7 21.3 87.6c-3.2 1.6-7.2 3-11.9 4.1-4.7 1.1-8.9 1.9-12.6 2.2l-31.4-41.2c-3.7-4.7-7.6-10.1-11.8-16.4l-.4.2c4.1 12.3 7.7 25 10.9 38.2l6.2 25.6c-2.5 1.2-5.7 2.2-9.5 3.1-3.8.9-7 1.4-9.7 1.5l-21.3-87.6c3.1-1.6 6.9-2.9 11.5-4s8.8-1.9 12.5-2.2l31.1 41.1c5.7 7.6 9.9 13.5 12.7 17.6l.5-.4c-3.9-11.7-7.5-24.2-10.8-37.6l-3.8-15.7c-1.1-4.5-1-7.9.4-10.3s4-4 8.1-5l6.9-1.5zM841.3 975.4l17.6-11.1c8-4.9 14.3-3.7 18.9 3.8l18.4 29.6c-7.8 9.1-17 17-27.6 23.6-5.4 3.4-10.7 5.4-16 6.2-5.3.8-10.4.4-15.3-1.3-4.9-1.6-9.6-4.5-14.1-8.5s-8.7-9.2-12.5-15.4c-4.2-6.8-7-13.4-8.1-19.7-1.2-6.3-1.1-12.2.1-17.6 1.2-5.5 3.5-10.4 6.8-14.8s7.3-8.1 12-11c9.8-6.1 20.6-9.1 32.5-9 .7 1.2 1.1 2.6 1.4 4.2.3 1.5.4 3.1.4 4.7s-.2 3.2-.5 4.7c-.4 1.5-.8 2.9-1.4 4.2-8.8-.2-16.3 1.7-22.7 5.7-12.2 7.6-13 20-2.4 37.1 10.6 17 22.2 21.7 34.7 13.9 1.7-1.1 3.3-2.2 4.9-3.3 1.5-1.2 3-2.4 4.4-3.7l-4.7-7.5c-1.1-1.7-2-3.2-2.7-4.5-.8-1.3-1.4-2.4-1.9-3.4l-5.6 3.5c-3.2 2-5.8 2.8-7.9 2.3-2-.5-3.8-2-5.5-4.6-1.3-2.2-2.4-4.9-3.2-8.1zM938.5 926.5l7 6.5.1.1c2.6-3.1 4.7-5.6 6.3-7.5l20.4-22.9c2.4 2.2 4.2 4 5.4 5.3 4.4 5.3 3.9 11-1.4 16.9l-23.5 26.3c-2.5 2.8-5.3 4.3-8.4 4.5-3.1.1-6.1-1-8.9-3.6l-58-51.7-.1-1.3 38-42.6c2.3 1.3 4.5 3 6.8 5 2.2 2 4.2 4.6 5.8 7.7l-24 26.9 7.2 6.3 6.9 6.2c1.5-1.8 3.4-4 5.9-6.8l13.4-15.1c2.4 1.1 4.8 2.6 7.1 4.8 2.4 2.1 4.3 4.4 5.7 6.7L931 919.8l7.5 6.7zM966.2 760l1.2-.5 81.9 37.7c-.8 3.5-2.1 7.5-4.2 11.9-2 4.4-4 8.1-6.1 11.3l-51.8-1c-5.9 0-12.6-.3-20.1-1v.4c12.2 4.4 24.4 9.5 36.7 15.1l24 11c-.7 2.7-1.8 5.8-3.4 9.4-1.6 3.5-3.2 6.4-4.8 8.6l-81.9-37.7c.7-3.4 2-7.2 4-11.5s4-8 6-11.2l51.6 1.1c9.5.3 16.8.6 21.7 1v-.6c-11.6-4.2-23.7-9.2-36.2-14.9l-14.7-6.8c-4.2-1.9-6.8-4.1-7.8-6.7-1-2.5-.7-5.7 1.1-9.4l2.8-6.2z"/><g><path fill="none" d="M294.4 604.2c0-188.1 152.5-340.6 340.6-340.6s340.6 152.5 340.6 340.6"/><path fill="#33AB31" d="M371.2 314.3l15.2-14.2c6.9-6.3 13.3-6.3 19.3.3l23.6 25.7c-5.9 10.4-13.5 19.8-22.8 28.3-4.7 4.3-9.6 7.3-14.6 9.1s-10.1 2.3-15.3 1.6c-5.1-.7-10.3-2.6-15.4-5.7-5.2-3.1-10.2-7.4-15.2-12.8-5.4-5.9-9.3-11.9-11.6-17.9-2.3-6-3.4-11.8-3.2-17.4.2-5.6 1.5-10.9 4-15.8 2.4-4.9 5.7-9.3 9.8-13.1 8.5-7.8 18.6-12.7 30.3-14.9.9 1.1 1.6 2.4 2.2 3.8.6 1.5 1 3 1.3 4.6.3 1.6.4 3.1.4 4.7-.1 1.6-.3 3-.6 4.4-8.6 1.4-15.7 4.7-21.2 9.8-10.6 9.7-9.1 22 4.5 36.9 13.6 14.8 25.8 17.2 36.7 7.2 1.5-1.4 2.9-2.8 4.2-4.2 1.3-1.4 2.5-2.9 3.6-4.4l-6-6.5c-1.4-1.5-2.6-2.8-3.5-4-1-1.1-1.8-2.1-2.5-3l-4.9 4.5c-2.8 2.6-5.2 3.8-7.3 3.7-2.1-.1-4.1-1.3-6.2-3.5-1.9-1.8-3.5-4.3-4.8-7.2zM446.1 312.1c-12.1-2.3-22.5-11.4-31.1-27.2-3.7-6.8-6.2-13.2-7.5-19.3-1.2-6-1.3-11.6-.3-16.7 1.1-5.1 3.2-9.7 6.5-13.9 3.3-4.1 7.6-7.7 12.9-10.6 5.3-2.9 10.7-4.7 15.9-5.3 5.3-.6 10.4.1 15.3 2s9.6 5 14 9.2c4.4 4.3 8.5 9.8 12.2 16.5s6.2 13.1 7.4 19.1c1.2 6 1.3 11.6.3 16.7-1.1 5.1-3.3 9.8-6.6 13.9s-7.7 7.7-13 10.6c-8.7 5-17.4 6.6-26 5zm.6-21.2c5.4 4.9 11.3 5.6 17.6 2.1 3.2-1.7 5.3-4 6.4-6.6 1.1-2.7 1.5-5.5 1.3-8.6-.2-3.1-1-6.2-2.2-9.4-1.3-3.2-2.7-6.3-4.3-9.3-1.5-2.7-3.2-5.7-5.3-8.9-2-3.2-4.3-6-6.8-8.4s-5.3-4-8.4-4.9c-3.1-.9-6.6-.2-10.5 1.9-3.7 2-6 4.6-7 7.5-.9 3-1.1 6.1-.6 9.5.6 3.3 1.6 6.6 3.1 9.9 1.5 3.3 2.9 6.1 4.2 8.5 2 3.6 3.9 6.6 5.8 9.2s4.1 5 6.7 7.5zM569.6 251.8l3.5-74.8c2-.9 4.6-1.7 7.9-2.3 4.5-.9 8.2-1.1 11-.6l1 .9-7.8 91.9c-4.9 1.5-9.8 2.7-14.8 3.6-5 .9-8.7 1-11.2.2s-4.6-3-6.4-6.5l-36.5-74.4c4.3-2.9 8-4.6 11-5.2 3.6-.7 6.5-.4 8.5.9s3.9 3.7 5.5 7l17.1 35.2c2.7 5.5 5.8 13.1 9.5 22.8.4 1 .9 1.4 1.7 1.3zM637.8 236.8l-.4 9.5v.1c4.1-.1 7.3-.1 9.8 0l30.7.8c-.1 3.3-.3 5.8-.6 7.5-1.2 6.8-5.8 10.1-13.8 9.9l-35.3-.9c-3.8-.1-6.8-1.3-8.9-3.5-2.1-2.3-3.1-5.3-3-9.1l2-77.7 1-.9 57.1 1.5c.5 2.6.7 5.4.6 8.4-.1 3-.8 6.1-2.1 9.4l-36.1-.9-.1 9.5-.2 9.3c2.3 0 5.3 0 9 .1l20.2.5c.7 2.5 1.1 5.3 1 8.5-.1 3.2-.6 6.1-1.4 8.7l-29.2-.8-.3 10.1zM732.6 224.4l20.2 4.9c9.1 2.3 12.6 7.7 10.4 16.3l-8.5 33.8c-11.9.7-24-.4-36.2-3.5-6.2-1.6-11.4-4-15.6-7.2-4.2-3.3-7.5-7.2-9.7-11.9-2.2-4.7-3.5-10-3.7-16-.2-6 .6-12.6 2.4-19.7 2-7.8 4.8-14.3 8.5-19.5 3.7-5.2 8-9.3 12.8-12.2 4.8-2.9 9.9-4.7 15.4-5.4 5.5-.7 10.9-.3 16.3 1 11.1 2.8 20.8 8.5 29.1 17.1-.4 1.4-1.1 2.7-2 3.9-.9 1.3-1.9 2.5-3.1 3.6-1.1 1.1-2.4 2.1-3.7 2.9-1.3.8-2.7 1.4-4 1.9-6-6.4-12.6-10.5-19.9-12.4-14-3.5-23.4 4.5-28.3 24.1-4.9 19.5-.2 31 14.1 34.6 2 .5 3.9.9 5.8 1.2 1.9.3 3.8.5 5.7.6l2.2-8.6c.5-2 .9-3.7 1.4-5.1.4-1.4.8-2.7 1.1-3.7l-6.4-1.6c-3.7-.9-6.1-2.3-7.1-4-1.1-1.8-1.2-4.2-.5-7.2.4-2.5 1.6-5.2 3.3-7.9zM793 280.9c-2.1-1.1-3.7-2-4.6-2.6l-14 14.4c-2.1-.5-4.9-1.7-8.2-3.4-3.8-2-6.6-4-8.5-6.1l-.1-1.2 67.2-65.2c3.3 1.1 7 2.8 11.1 4.9 4.6 2.4 8.2 4.6 10.6 6.6l-16.1 92.2c-3.5 0-7-.8-10.4-2.6-4.1-2.1-6.6-4.3-7.5-6.6-.9-2.3-.9-5.7 0-10.3l1.8-8.9c-1.1-.5-2.6-1.2-4.6-2.3l-16.7-8.9zm7.4-14.9l4.8 2.3 8.6 4.5c.4.2 1.1.6 2 1.1 1 .6 1.7 1 2.1 1.2l1.8-8.3c1.6-7.6 3.7-16.8 6.2-27.6l-.7-.4c-2.4 3-8.2 9.5-17.4 19.5l-7.4 7.7zM948.5 304.6l.1 1.3-59.9 67.4c-3.2-1.8-6.6-4.2-10.2-7.4-3.6-3.2-6.6-6.2-9-9.1l16-49.3c1.7-5.7 4-12 6.8-19l-.4-.2c-7.8 10.4-16.2 20.6-25.2 30.7l-17.5 19.7c-2.4-1.4-5.1-3.4-8-6-2.9-2.6-5.2-5-6.8-7.1l59.9-67.4c3 1.6 6.3 4 9.9 7.2 3.5 3.1 6.5 6.1 8.9 9l-16.1 49c-3 9-5.5 15.8-7.2 20.5l.6.2c7.4-9.9 15.6-20 24.8-30.3l10.7-12.1c3.1-3.4 5.9-5.3 8.6-5.5 2.7-.3 5.6 1 8.7 3.8l5.3 4.6z"/></g></g><g><circle cx="240.9" cy="530.8" r="24.7"/><circle cx="1026.9" cy="530.8" r="24.7"/></g><g><g fill="#FFF"><path d="M552.2 610.8c-.1.2-.2.3-.3.3.1 0 .2-.1.3-.3zM555.1 607.6c.9-1 2.1-2.3 3.4-3.8.6-.7 1.2-1.3 1.7-1.9-1.6 1.8-3.5 3.9-5.1 5.7zM551.9 611.1c0 .1 0 .1 0 0z"/><path d="M553.3 609.6c-.5.5-.8.9-1.1 1.2.3-.3.6-.7 1.1-1.2zM560.2 601.9l.3-.3c-.1.1-.1.2-.3.3zM506.7 687c-.3.8-.5 1.7-.8 2.5.3-.9.6-1.7.8-2.5zM555 607.7c-.7.7-1.2 1.4-1.7 1.9.4-.5 1-1.1 1.7-1.9zM555.1 607.6l-.1.1.1-.1zM561.5 600.5c.5-.5.9-1 1.3-1.5-.4.5-.8.9-1.3 1.5zM563.9 597.8c.1-.1.1-.2.2-.2l-.2.2zM564.1 597.6c.1-.1.2-.2.2-.3 0 .1-.1.2-.2.3zM560.5 601.6c.3-.4.6-.7.9-1-.2.2-.5.6-.9 1zM564.4 597.3c.1-.2.2-.2 0 0zM562.8 599c.2-.2.3-.4.5-.5-.2.2-.3.4-.5.5zM563.5 598.2c.1-.2.3-.3.4-.4-.1.1-.2.3-.4.4zM563.3 598.5l.3-.3-.3.3z"/><path d="M823.5 524.4C765.9 457 674.2 424 588.1 449.5 498.5 476 427.7 563.8 434.2 659.2c5.8 73.6 53 135.3 122.6 160.5 105.6 35 205.3-33.4 228.7-90.7 21.1-53.2 9.6-111.6-29.8-151.7-25.2-23.6-54.9-38.1-90.6-36-43.5 2.5-78.2 31.1-106.4 62.4-21.9 24.4-42 51.8-51.8 83.2 15.4-45.7 70.9-30 112.9-21.2 37.2 7.8 87.3.5 113-41.6-29.7-28.2-79.9-13.5-120.6-13.9 34.3-16.2 90.7-28.3 125.2-5.6 5.2 4.7 9.7 10.4 13.2 17.2 15.5 36.2 13.5 81.3-12.1 112.5-24 29.3-103.3 87.2-198.8 20.4-36-33.8-60.7-78.5-52.9-127.6 12.4-78 80.4-139.9 156.2-154.9 25.9-5.2 51.9-4.8 77.2 0-3.1-.8-6.3-1.5-9.5-2.1 40.9 8.2 79.8 28 112.8 54.3zm-213.4-49.2c-2.4.8-4.7 1.5-7 2.4 2.3-.9 4.6-1.7 7-2.4zm128.6 130.4c-.5-.4-1-.7-1.5-1 .5.4 1 .7 1.5 1zm4.4 3.4c-1.4-1.2-2.8-2.3-4.3-3.3 1.4 1 2.9 2.1 4.3 3.3zm3.2 2.9c.6.6 1.2 1.2 1.8 1.9-.6-.6-1.2-1.3-1.8-1.9zm-3.1-2.8c.4.3.8.7 1.2 1-.4-.3-.8-.6-1.2-1zm1.6 1.4c.4.3.7.7 1.1 1-.4-.3-.7-.6-1.1-1zm11.7 14.8c-.1-.2-.3-.4-.4-.6.1.1.2.3.4.6zm-1.3-2.1c-.1-.2-.3-.5-.4-.7.1.2.3.5.4.7zm-1.3-2.1c-.1-.2-.3-.4-.4-.6.1.2.2.4.4.6zm-1.7-2.4c-.2-.2-.4-.5-.6-.7.2.2.4.5.6.7zm-1.4-1.7c-.2-.3-.5-.6-.7-.8.3.2.5.5.7.8zm-1.4-1.7c-.3-.3-.5-.6-.8-.9.3.3.6.6.8.9zm-257.2-42.4c-.6 1.1-1.1 2.2-1.6 3.2.5-1.1 1.1-2.1 1.6-3.2zm4.5-8.1c.6-1 1.2-1.9 1.7-2.9-.5 1-1.1 2-1.7 2.9zm3.9-6.2c.8-1.3 1.6-2.5 2.5-3.8-.9 1.3-1.7 2.5-2.5 3.8zm3.4-5.1c2.2-3.2 4.4-6.2 6.8-9.3-2.4 3-4.7 6.1-6.8 9.3zm56.1-54.5c1.2-.8 2.5-1.6 3.8-2.4-1.3.8-2.5 1.6-3.8 2.4zm-9.4 6.5c.6-.4 1.1-.8 1.7-1.2-.5.4-1.1.8-1.7 1.2zm25.2-15.9c1.3-.7 2.6-1.4 3.8-2-1.2.7-2.5 1.4-3.8 2zm61.3-21c.7-.1 1.3-.2 2-.3-.6.1-1.3.2-2 .3zm68.1.6l3.6.6c-1.1-.2-2.4-.4-3.6-.6zm-62-1.5l2.4-.3-2.4.3zm6.1-.7c.9-.1 1.7-.2 2.6-.2-.9 0-1.7.1-2.6.2zm6.1-.5c.9-.1 1.7-.1 2.6-.2-.9.1-1.7.1-2.6.2zm6.1-.3c.9 0 1.7-.1 2.6-.1-.9 0-1.7 0-2.6.1zm6.3-.2h2.4-2.4zm8.1.1c.9 0 1.8.1 2.8.1-.9 0-1.9-.1-2.8-.1zm6 .3c1 .1 2.1.1 3.1.2-1-.1-2.1-.1-3.1-.2zm5.9.5c1.1.1 2.2.2 3.2.3-1-.1-2.1-.2-3.2-.3zm5.9.6c1.1.1 2.2.3 3.3.4-1.1-.1-2.2-.3-3.3-.4zm5.8.8c1.1.2 2.3.3 3.4.5-1.1-.2-2.2-.4-3.4-.5z"/></g></g></svg>