<svg version="1.1" xmlns="http://www.w3.org/2000/svg" xmlns:xlink="http://www.w3.org/1999/xlink" x="0px" y="0px"
	 viewBox="0 0 1280 1280" enable-background="new 0 0 1280 1280" xml:space="preserve">
<g id="outer_circle">
	<circle fill="#FFFFFF" stroke="#000000" stroke-width="25" stroke-miterlimit="10" cx="634.7" cy="622.6" r="483"/>
	<circle fill="none" stroke="#000000" stroke-width="10" stroke-miterlimit="10" cx="634.7" cy="634.6" r="334"/>
	<circle display="none" fill="none" stroke="#FFFFFF" stroke-width="40" stroke-miterlimit="10" cx="635" cy="635.8" r="354.2"/>
</g>
<g id="Layer_10_copy_2">
	<g>
		
			<linearGradient id="SVGID_1_" gradientUnits="userSpaceOnUse" x1="573.3365" y1="589.2371" x2="572.7671" y2="589.2269" gradientTransform="matrix(0.9511 -0.3089 0.3089 0.9511 -174.9244 227.596)">
			<stop  offset="0" style="stop-color:#8CC63F"/>
			<stop  offset="1" style="stop-color:#009245"/>
		</linearGradient>
		<path fill="url(#SVGID_1_)" d="M552.2,610.8c-0.1,0.2-0.2,0.3-0.3,0.3C552,611.1,552.1,611,552.2,610.8z"/>
		
			<linearGradient id="SVGID_2_" gradientUnits="userSpaceOnUse" x1="586.6473" y1="585.1369" x2="576.5793" y2="584.9561" gradientTransform="matrix(0.9511 -0.3089 0.3089 0.9511 -174.9244 227.596)">
			<stop  offset="0" style="stop-color:#8CC63F"/>
			<stop  offset="1" style="stop-color:#009245"/>
		</linearGradient>
		<path fill="url(#SVGID_2_)" d="M555.1,607.6c0.9-1,2.1-2.3,3.4-3.8c0.6-0.7,1.2-1.3,1.7-1.9C558.6,603.7,556.7,605.8,555.1,607.6z
			"/>
		
			<linearGradient id="SVGID_3_" gradientUnits="userSpaceOnUse" x1="572.8165" y1="589.3578" x2="572.7224" y2="589.3561" gradientTransform="matrix(0.9511 -0.3089 0.3089 0.9511 -174.9244 227.596)">
			<stop  offset="0" style="stop-color:#8CC63F"/>
			<stop  offset="1" style="stop-color:#009245"/>
		</linearGradient>
		<path fill="url(#SVGID_3_)" d="M551.9,611.1C551.9,611.2,551.9,611.2,551.9,611.1L551.9,611.1z"/>
		
			<linearGradient id="SVGID_4_" gradientUnits="userSpaceOnUse" x1="575.1817" y1="588.7478" x2="573.0865" y2="588.7101" gradientTransform="matrix(0.9511 -0.3089 0.3089 0.9511 -174.9244 227.596)">
			<stop  offset="0" style="stop-color:#8CC63F"/>
			<stop  offset="1" style="stop-color:#009245"/>
		</linearGradient>
		<path fill="url(#SVGID_4_)" d="M553.3,609.6c-0.5,0.5-0.8,0.9-1.1,1.2C552.5,610.5,552.8,610.1,553.3,609.6z"/>
		
			<linearGradient id="SVGID_5_" gradientUnits="userSpaceOnUse" x1="584.1394" y1="583.002" x2="583.549" y2="582.9914" gradientTransform="matrix(0.9511 -0.3089 0.3089 0.9511 -174.9244 227.596)">
			<stop  offset="0" style="stop-color:#8CC63F"/>
			<stop  offset="1" style="stop-color:#009245"/>
		</linearGradient>
		<path fill="url(#SVGID_5_)" d="M560.2,601.9c0.1-0.1,0.2-0.2,0.3-0.3C560.4,601.7,560.4,601.8,560.2,601.9z"/>
		
			<linearGradient id="SVGID_6_" gradientUnits="userSpaceOnUse" x1="507.0852" y1="648.5888" x2="504.781" y2="648.5474" gradientTransform="matrix(0.9511 -0.3089 0.3089 0.9511 -174.9244 227.596)">
			<stop  offset="0" style="stop-color:#8CC63F"/>
			<stop  offset="1" style="stop-color:#009245"/>
		</linearGradient>
		<path fill="url(#SVGID_6_)" d="M506.7,687c-0.3,0.8-0.5,1.7-0.8,2.5C506.2,688.6,506.5,687.8,506.7,687z"/>
		
			<linearGradient id="SVGID_7_" gradientUnits="userSpaceOnUse" x1="577.8157" y1="587.7181" x2="574.4181" y2="587.6571" gradientTransform="matrix(0.9511 -0.3089 0.3089 0.9511 -174.9244 227.596)">
			<stop  offset="0" style="stop-color:#8CC63F"/>
			<stop  offset="1" style="stop-color:#009245"/>
		</linearGradient>
		<path fill="url(#SVGID_7_)" d="M555,607.7c-0.7,0.7-1.2,1.4-1.7,1.9C553.7,609.1,554.3,608.5,555,607.7z"/>
		
			<linearGradient id="SVGID_8_" gradientUnits="userSpaceOnUse" x1="577.0222" y1="586.9879" x2="576.7682" y2="586.9833" gradientTransform="matrix(0.9511 -0.3089 0.3089 0.9511 -174.9244 227.596)">
			<stop  offset="0" style="stop-color:#8CC63F"/>
			<stop  offset="1" style="stop-color:#009245"/>
		</linearGradient>
		<path fill="url(#SVGID_8_)" d="M555.1,607.6c0,0-0.1,0.1-0.1,0.1C555,607.7,555.1,607.6,555.1,607.6z"/>
		
			<linearGradient id="SVGID_9_" gradientUnits="userSpaceOnUse" x1="587.6712" y1="581.72" x2="585.0735" y2="581.6734" gradientTransform="matrix(0.9511 -0.3089 0.3089 0.9511 -174.9244 227.596)">
			<stop  offset="0" style="stop-color:#8CC63F"/>
			<stop  offset="1" style="stop-color:#009245"/>
		</linearGradient>
		<path fill="url(#SVGID_9_)" d="M561.5,600.5c0.5-0.5,0.9-1,1.3-1.5C562.4,599.5,562,599.9,561.5,600.5z"/>
		
			<linearGradient id="SVGID_10_" gradientUnits="userSpaceOnUse" x1="588.7095" y1="580.2881" x2="588.3116" y2="580.281" gradientTransform="matrix(0.9511 -0.3089 0.3089 0.9511 -174.9244 227.596)">
			<stop  offset="0" style="stop-color:#8CC63F"/>
			<stop  offset="1" style="stop-color:#009245"/>
		</linearGradient>
		<path fill="url(#SVGID_10_)" d="M563.9,597.8c0.1-0.1,0.1-0.2,0.2-0.2C564.1,597.6,564,597.7,563.9,597.8z"/>
		
			<linearGradient id="SVGID_11_" gradientUnits="userSpaceOnUse" x1="589.0517" y1="580.1219" x2="588.5704" y2="580.1132" gradientTransform="matrix(0.9511 -0.3089 0.3089 0.9511 -174.9244 227.596)">
			<stop  offset="0" style="stop-color:#8CC63F"/>
			<stop  offset="1" style="stop-color:#009245"/>
		</linearGradient>
		<path fill="url(#SVGID_11_)" d="M564.1,597.6c0.1-0.1,0.2-0.2,0.2-0.3C564.3,597.4,564.2,597.5,564.1,597.6z"/>
		
			<linearGradient id="SVGID_12_" gradientUnits="userSpaceOnUse" x1="585.7291" y1="582.5546" x2="583.8923" y2="582.5217" gradientTransform="matrix(0.9511 -0.3089 0.3089 0.9511 -174.9244 227.596)">
			<stop  offset="0" style="stop-color:#8CC63F"/>
			<stop  offset="1" style="stop-color:#009245"/>
		</linearGradient>
		<path fill="url(#SVGID_12_)" d="M560.5,601.6c0.3-0.4,0.6-0.7,0.9-1C561.2,600.8,560.9,601.2,560.5,601.6z"/>
		
			<linearGradient id="SVGID_13_" gradientUnits="userSpaceOnUse" x1="589.1619" y1="579.9771" x2="588.895" y2="579.9724" gradientTransform="matrix(0.9511 -0.3089 0.3089 0.9511 -174.9244 227.596)">
			<stop  offset="0" style="stop-color:#8CC63F"/>
			<stop  offset="1" style="stop-color:#009245"/>
		</linearGradient>
		<path fill="url(#SVGID_13_)" d="M564.4,597.3C564.5,597.1,564.6,597.1,564.4,597.3L564.4,597.3z"/>
		
			<linearGradient id="SVGID_14_" gradientUnits="userSpaceOnUse" x1="587.7537" y1="581.0339" x2="586.8444" y2="581.0176" gradientTransform="matrix(0.9511 -0.3089 0.3089 0.9511 -174.9244 227.596)">
			<stop  offset="0" style="stop-color:#8CC63F"/>
			<stop  offset="1" style="stop-color:#009245"/>
		</linearGradient>
		<path fill="url(#SVGID_14_)" d="M562.8,599c0.2-0.2,0.3-0.4,0.5-0.5C563.1,598.7,563,598.9,562.8,599z"/>
		
			<linearGradient id="SVGID_15_" gradientUnits="userSpaceOnUse" x1="588.5515" y1="580.508" x2="587.8137" y2="580.4948" gradientTransform="matrix(0.9511 -0.3089 0.3089 0.9511 -174.9244 227.596)">
			<stop  offset="0" style="stop-color:#8CC63F"/>
			<stop  offset="1" style="stop-color:#009245"/>
		</linearGradient>
		<path fill="url(#SVGID_15_)" d="M563.5,598.2c0.1-0.2,0.3-0.3,0.4-0.4C563.8,597.9,563.7,598.1,563.5,598.2z"/>
		
			<linearGradient id="SVGID_16_" gradientUnits="userSpaceOnUse" x1="588.0098" y1="580.7516" x2="587.4557" y2="580.7416" gradientTransform="matrix(0.9511 -0.3089 0.3089 0.9511 -174.9244 227.596)">
			<stop  offset="0" style="stop-color:#8CC63F"/>
			<stop  offset="1" style="stop-color:#009245"/>
		</linearGradient>
		<path fill="url(#SVGID_16_)" d="M563.3,598.5c0.1-0.1,0.2-0.2,0.3-0.3C563.5,598.3,563.4,598.4,563.3,598.5z"/>
		
			<linearGradient id="SVGID_17_" gradientUnits="userSpaceOnUse" x1="1054.5623" y1="643.7448" x2="415.4493" y2="632.2631" gradientTransform="matrix(0.9511 -0.3089 0.3089 0.9511 -174.9244 227.596)">
			<stop  offset="0" style="stop-color:#8CC63F"/>
			<stop  offset="1" style="stop-color:#009245"/>
		</linearGradient>
		<path fill="url(#SVGID_17_)" d="M823.5,524.4C765.9,457,674.2,424,588.1,449.5c-89.6,26.5-160.4,114.3-153.9,209.7
			c5.8,73.6,53,135.3,122.6,160.5c105.6,35,205.3-33.4,228.7-90.7c21.1-53.2,9.6-111.6-29.8-151.7c-25.2-23.6-54.9-38.1-90.6-36
			c-43.5,2.5-78.2,31.1-106.4,62.4c-21.9,24.4-42,51.8-51.8,83.2c15.4-45.7,70.9-30,112.9-21.2c37.2,7.8,87.3,0.5,113-41.6
			c-29.7-28.2-79.9-13.5-120.6-13.9c34.3-16.2,90.7-28.3,125.2-5.6c5.2,4.7,9.7,10.4,13.2,17.2c15.5,36.2,13.5,81.3-12.1,112.5
			c-24,29.3-103.3,87.2-198.8,20.4c-36-33.8-60.7-78.5-52.9-127.6c12.4-78,80.4-139.9,156.2-154.9c25.9-5.2,51.9-4.8,77.2,0
			c-3.1-0.8-6.3-1.5-9.5-2.1C751.6,478.3,790.5,498.1,823.5,524.4z M610.1,475.2c-2.4,0.8-4.7,1.5-7,2.4
			C605.4,476.7,607.7,475.9,610.1,475.2z M738.7,605.6c-0.5-0.4-1-0.7-1.5-1C737.7,605,738.2,605.3,738.7,605.6z M743.1,609
			c-1.4-1.2-2.8-2.3-4.3-3.3C740.2,606.7,741.7,607.8,743.1,609z M746.3,611.9c0.6,0.6,1.2,1.2,1.8,1.9
			C747.5,613.2,746.9,612.5,746.3,611.9z M743.2,609.1c0.4,0.3,0.8,0.7,1.2,1C744,609.8,743.6,609.5,743.2,609.1z M744.8,610.5
			c0.4,0.3,0.7,0.7,1.1,1C745.5,611.2,745.2,610.9,744.8,610.5z M756.5,625.3c-0.1-0.2-0.3-0.4-0.4-0.6
			C756.2,624.8,756.3,625,756.5,625.3z M755.2,623.2c-0.1-0.2-0.3-0.5-0.4-0.7C754.9,622.7,755.1,623,755.2,623.2z M753.9,621.1
			c-0.1-0.2-0.3-0.4-0.4-0.6C753.6,620.7,753.7,620.9,753.9,621.1z M752.2,618.7c-0.2-0.2-0.4-0.5-0.6-0.7
			C751.8,618.2,752,618.5,752.2,618.7z M750.8,617c-0.2-0.3-0.5-0.6-0.7-0.8C750.4,616.4,750.6,616.7,750.8,617z M749.4,615.3
			c-0.3-0.3-0.5-0.6-0.8-0.9C748.9,614.7,749.2,615,749.4,615.3z M492.2,572.9c-0.6,1.1-1.1,2.2-1.6,3.2
			C491.1,575,491.7,574,492.2,572.9z M496.7,564.8c0.6-1,1.2-1.9,1.7-2.9C497.9,562.9,497.3,563.9,496.7,564.8z M500.6,558.6
			c0.8-1.3,1.6-2.5,2.5-3.8C502.2,556.1,501.4,557.3,500.6,558.6z M504,553.5c2.2-3.2,4.4-6.2,6.8-9.3
			C508.4,547.2,506.1,550.3,504,553.5z M560.1,499c1.2-0.8,2.5-1.6,3.8-2.4C562.6,497.4,561.4,498.2,560.1,499z M550.7,505.5
			c0.6-0.4,1.1-0.8,1.7-1.2C551.9,504.7,551.3,505.1,550.7,505.5z M575.9,489.6c1.3-0.7,2.6-1.4,3.8-2
			C578.5,488.3,577.2,489,575.9,489.6z M637.2,468.6c0.7-0.1,1.3-0.2,2-0.3C638.6,468.4,637.9,468.5,637.2,468.6z M705.3,469.2
			c1.2,0.2,2.4,0.4,3.6,0.6C707.8,469.6,706.5,469.4,705.3,469.2z M643.3,467.7c0.8-0.1,1.6-0.2,2.4-0.3
			C644.9,467.5,644.1,467.6,643.3,467.7z M649.4,467c0.9-0.1,1.7-0.2,2.6-0.2C651.1,466.8,650.3,466.9,649.4,467z M655.5,466.5
			c0.9-0.1,1.7-0.1,2.6-0.2C657.2,466.4,656.4,466.4,655.5,466.5z M661.6,466.2c0.9,0,1.7-0.1,2.6-0.1
			C663.3,466.1,662.5,466.1,661.6,466.2z M667.9,466c0.8,0,1.6,0,2.4,0C669.5,466,668.7,466,667.9,466z M676,466.1
			c0.9,0,1.8,0.1,2.8,0.1C677.9,466.2,676.9,466.1,676,466.1z M682,466.4c1,0.1,2.1,0.1,3.1,0.2C684.1,466.5,683,466.5,682,466.4z
			 M687.9,466.9c1.1,0.1,2.2,0.2,3.2,0.3C690.1,467.1,689,467,687.9,466.9z M693.8,467.5c1.1,0.1,2.2,0.3,3.3,0.4
			C696,467.8,694.9,467.6,693.8,467.5z M699.6,468.3c1.1,0.2,2.3,0.3,3.4,0.5C701.9,468.6,700.8,468.4,699.6,468.3z"/>
	</g>
	<linearGradient id="SVGID_18_" gradientUnits="userSpaceOnUse" x1="1250.2159" y1="448.891" x2="282.5097" y2="744.1326">
		<stop  offset="0" style="stop-color:#8CC63F"/>
		<stop  offset="1" style="stop-color:#009245"/>
	</linearGradient>
	<circle fill="url(#SVGID_18_)" cx="636.1" cy="636.3" r="329.3"/>
</g>
<g id="white_overlay_circle">
	<circle fill="none" stroke="#FFFFFF" stroke-width="80" stroke-miterlimit="10" cx="633.7" cy="635.6" r="361.9"/>
</g>
<g id="inner_circle">
	<circle fill="none" stroke="#000000" stroke-width="25" stroke-miterlimit="10" cx="633.7" cy="635.6" r="334"/>
</g>
<g id="green_text">
	<g>
		<path fill="none" d="M294.4,646.6c0,188.1,152.5,340.6,340.6,340.6s340.6-152.5,340.6-340.6"/>
		<path fill="#33AB31" d="M282.2,808.4l8.7,18.9c3.9,8.5,1.8,14.6-6.3,18.3L252.9,860c-8-8.9-14.6-19-19.8-30.5
			c-2.6-5.8-4-11.4-4.1-16.7c-0.1-5.3,1-10.3,3.2-15c2.3-4.7,5.7-9,10.2-12.9c4.6-3.9,10.2-7.4,16.9-10.4c7.3-3.3,14.2-5.2,20.6-5.5
			c6.4-0.3,12.2,0.5,17.5,2.4c5.2,1.9,9.8,4.8,13.8,8.7c3.9,3.8,7,8.3,9.3,13.4c4.7,10.5,6.3,21.6,4.7,33.4
			c-1.3,0.5-2.8,0.8-4.3,0.9c-1.6,0.1-3.1,0-4.7-0.2c-1.6-0.2-3.1-0.6-4.6-1.1c-1.5-0.6-2.8-1.2-4-1.9c1.3-8.7,0.4-16.4-2.7-23.2
			c-6-13.1-18.1-15.5-36.5-7.2c-18.3,8.3-24.4,19.2-18.3,32.6c0.8,1.9,1.7,3.6,2.7,5.3c0.9,1.7,2,3.3,3.1,4.8l8.1-3.7
			c1.9-0.8,3.5-1.6,4.9-2.1c1.4-0.6,2.6-1.1,3.6-1.4l-2.7-6c-1.6-3.5-2-6.2-1.3-8.1c0.7-1.9,2.5-3.5,5.3-4.8
			C276.1,809.5,279,808.8,282.2,808.4z"/>
		<path fill="#33AB31" d="M375,921.6c-2.2,1.9-4.6,3.4-7.1,4.5c-2.5,1.1-5.1,1.7-7.6,2c-2.5,0.3-5,0.2-7.5-0.3
			c-2.5-0.5-4.7-1.2-6.7-2.3c1.8,4.6,1,9.8-2.4,15.7l-5.8,10.4c-2.3,4.1-3.3,7.9-3,11.5c-2.2,0.2-4.6-0.3-7.3-1.5s-5-3-7.1-5.4
			c-2.1-2.4-3.1-4.8-2.9-7.4c0.2-2.5,1.5-5.8,3.9-10l7.3-12.8c1.3-2.5,2-4.8,2-7c0-2.2-1.1-4.5-3.3-6.9l-3.6-4.1L299,930.1
			c-2.3-1.8-4.8-4.2-7.6-7.4c-2.8-3.2-4.9-6-6.3-8.4l67.4-59.5l1.3,0.1c5.2,5.7,9.6,10.4,13.1,14.3c3.5,3.9,6.3,7,8.3,9.2
			c3.2,3.6,5.7,7.4,7.4,11.1s2.6,7.5,2.7,11.2s-0.8,7.3-2.5,10.8C381.2,915.1,378.5,918.4,375,921.6z M355.7,880.1l-19.6,17.3
			c2.6,3,4.9,5.5,6.9,7.5c2,2,3.9,3.4,5.7,4.1c1.8,0.7,3.7,0.8,5.5,0.3c1.8-0.5,4-1.7,6.4-3.9c6.5-5.7,6.9-11.7,1.4-17.9
			c-1.3-1.5-2.6-2.9-3.6-4.1C357.3,882.2,356.4,881.1,355.7,880.1z"/>
		<path fill="#33AB31" d="M385.4,1001.6c-3.9-11.7-1.1-25.2,8.4-40.5c4.1-6.6,8.5-11.9,13.1-16c4.6-4,9.5-6.9,14.4-8.4
			c5-1.6,10.1-2,15.3-1.1c5.2,0.8,10.4,2.9,15.6,6.1c5.2,3.2,9.3,7,12.4,11.3c3.1,4.3,5,9.1,5.8,14.3c0.8,5.2,0.4,10.8-1.2,16.7
			c-1.6,6-4.4,12.2-8.4,18.7c-4.1,6.5-8.4,11.8-13,15.9c-4.6,4-9.5,6.9-14.4,8.4c-5,1.6-10.1,1.9-15.3,1.1
			c-5.2-0.9-10.5-2.9-15.6-6.1C393.9,1016.6,388.2,1009.8,385.4,1001.6z M404.2,991.7c-1.6,7.1,0.7,12.6,6.8,16.4
			c3.1,1.9,6.1,2.7,8.9,2.3c2.9-0.3,5.6-1.4,8.1-3.1c2.6-1.7,4.9-3.9,7.1-6.6c2.2-2.7,4.2-5.5,5.9-8.3c1.6-2.6,3.4-5.6,5.2-9
			c1.8-3.3,3.1-6.7,4-10.1s0.9-6.6,0.1-9.8c-0.8-3.1-3-5.9-6.8-8.2c-3.6-2.2-6.9-3-10-2.4c-3.1,0.7-5.9,2-8.5,4.2
			c-2.6,2.1-5,4.6-7.1,7.5c-2.1,2.9-3.9,5.5-5.3,7.8c-2.1,3.5-3.9,6.6-5.2,9.6C406.2,985.1,405.1,988.3,404.2,991.7z"/>
		<path fill="#33AB31" d="M588.4,993.4l0.7,1.1l-20.9,87.7c-3.6,0-7.8-0.6-12.5-1.7c-4.7-1.1-8.8-2.4-12.3-3.7l-9.2-51
			c-1.2-5.8-2.2-12.5-3-19.9l-0.4,0c-2,12.8-4.5,25.8-7.6,38.9l-6.1,25.7c-2.8-0.1-6.1-0.6-9.9-1.5c-3.8-0.9-6.9-1.9-9.4-3
			l20.9-87.7c3.5,0,7.5,0.6,12.1,1.7c4.6,1.1,8.6,2.3,12.1,3.7l9,50.8c1.6,9.4,2.7,16.5,3.3,21.5l0.6-0.1c1.8-12.2,4.3-25,7.5-38.4
			l3.8-15.7c1.1-4.5,2.7-7.5,5-9c2.3-1.5,5.4-1.8,9.5-0.8L588.4,993.4z"/>
		<path fill="#33AB31" d="M626.9,1086.3l-1.5-90.6c2.7-0.6,6.3-0.9,10.6-1c4.3-0.1,7.9,0.1,10.8,0.6l1.5,90.6
			c-2.8,0.6-6.4,0.9-10.7,1C633.2,1087,629.7,1086.8,626.9,1086.3z"/>
		<path fill="#33AB31" d="M751.8,976.5l1.1,0.7l21.3,87.6c-3.2,1.6-7.2,3-11.9,4.1c-4.7,1.1-8.9,1.9-12.6,2.2l-31.4-41.2
			c-3.7-4.7-7.6-10.1-11.8-16.4l-0.4,0.2c4.1,12.3,7.7,25,10.9,38.2l6.2,25.6c-2.5,1.2-5.7,2.2-9.5,3.1c-3.8,0.9-7,1.4-9.7,1.5
			l-21.3-87.6c3.1-1.6,6.9-2.9,11.5-4c4.6-1.1,8.8-1.9,12.5-2.2l31.1,41.1c5.7,7.6,9.9,13.5,12.7,17.6l0.5-0.4
			c-3.9-11.7-7.5-24.2-10.8-37.6l-3.8-15.7c-1.1-4.5-1-7.9,0.4-10.3s4-4,8.1-5L751.8,976.5z"/>
		<path fill="#33AB31" d="M841.3,975.4l17.6-11.1c8-4.9,14.3-3.7,18.9,3.8l18.4,29.6c-7.8,9.1-17,17-27.6,23.6
			c-5.4,3.4-10.7,5.4-16,6.2c-5.3,0.8-10.4,0.4-15.3-1.3c-4.9-1.6-9.6-4.5-14.1-8.5c-4.5-4-8.7-9.2-12.5-15.4
			c-4.2-6.8-7-13.4-8.1-19.7c-1.2-6.3-1.1-12.2,0.1-17.6c1.2-5.5,3.5-10.4,6.8-14.8c3.3-4.4,7.3-8.1,12-11c9.8-6.1,20.6-9.1,32.5-9
			c0.7,1.2,1.1,2.6,1.4,4.2c0.3,1.5,0.4,3.1,0.4,4.7c0,1.6-0.2,3.2-0.5,4.7c-0.4,1.5-0.8,2.9-1.4,4.2c-8.8-0.2-16.3,1.7-22.7,5.7
			c-12.2,7.6-13,20-2.4,37.1c10.6,17,22.2,21.7,34.7,13.9c1.7-1.1,3.3-2.2,4.9-3.3c1.5-1.2,3-2.4,4.4-3.7l-4.7-7.5
			c-1.1-1.7-2-3.2-2.7-4.5c-0.8-1.3-1.4-2.4-1.9-3.4l-5.6,3.5c-3.2,2-5.8,2.8-7.9,2.3c-2-0.5-3.8-2-5.5-4.6
			C843.2,981.3,842.1,978.6,841.3,975.4z"/>
		<path fill="#33AB31" d="M938.5,926.5l7,6.5l0.1,0.1c2.6-3.1,4.7-5.6,6.3-7.5l20.4-22.9c2.4,2.2,4.2,4,5.4,5.3
			c4.4,5.3,3.9,11-1.4,16.9l-23.5,26.3c-2.5,2.8-5.3,4.3-8.4,4.5c-3.1,0.1-6.1-1-8.9-3.6l-58-51.7l-0.1-1.3l38-42.6
			c2.3,1.3,4.5,3,6.8,5c2.2,2,4.2,4.6,5.8,7.7l-24,26.9l7.2,6.3l6.9,6.2c1.5-1.8,3.4-4,5.9-6.8l13.4-15.1c2.4,1.1,4.8,2.6,7.1,4.8
			c2.4,2.1,4.3,4.4,5.7,6.7L931,919.8L938.5,926.5z"/>
		<path fill="#33AB31" d="M966.2,760l1.2-0.5l81.9,37.7c-0.8,3.5-2.1,7.5-4.2,11.9c-2,4.4-4,8.1-6.1,11.3l-51.8-1
			c-5.9,0-12.6-0.3-20.1-1l0,0.4c12.2,4.4,24.4,9.5,36.7,15.1l24,11c-0.7,2.7-1.8,5.8-3.4,9.4c-1.6,3.5-3.2,6.4-4.8,8.6l-81.9-37.7
			c0.7-3.4,2-7.2,4-11.5c2-4.3,4-8,6-11.2l51.6,1.1c9.5,0.3,16.8,0.6,21.7,1l0-0.6c-11.6-4.2-23.7-9.2-36.2-14.9l-14.7-6.8
			c-4.2-1.9-6.8-4.1-7.8-6.7c-1-2.5-0.7-5.7,1.1-9.4L966.2,760z"/>
	</g>
	<g>
		<path fill="none" d="M294.4,604.2c0-188.1,152.5-340.6,340.6-340.6s340.6,152.5,340.6,340.6"/>
		<path fill="#33AB31" d="M371.2,314.3l15.2-14.2c6.9-6.3,13.3-6.3,19.3,0.3l23.6,25.7c-5.9,10.4-13.5,19.8-22.8,28.3
			c-4.7,4.3-9.6,7.3-14.6,9.1s-10.1,2.3-15.3,1.6c-5.1-0.7-10.3-2.6-15.4-5.7c-5.2-3.1-10.2-7.4-15.2-12.8
			c-5.4-5.9-9.3-11.9-11.6-17.9c-2.3-6-3.4-11.8-3.2-17.4c0.2-5.6,1.5-10.9,4-15.8c2.4-4.9,5.7-9.3,9.8-13.1
			c8.5-7.8,18.6-12.7,30.3-14.9c0.9,1.1,1.6,2.4,2.2,3.8c0.6,1.5,1,3,1.3,4.6c0.3,1.6,0.4,3.1,0.4,4.7c-0.1,1.6-0.3,3-0.6,4.4
			c-8.6,1.4-15.7,4.7-21.2,9.8c-10.6,9.7-9.1,22,4.5,36.9c13.6,14.8,25.8,17.2,36.7,7.2c1.5-1.4,2.9-2.8,4.2-4.2
			c1.3-1.4,2.5-2.9,3.6-4.4l-6-6.5c-1.4-1.5-2.6-2.8-3.5-4c-1-1.1-1.8-2.1-2.5-3l-4.9,4.5c-2.8,2.6-5.2,3.8-7.3,3.7
			c-2.1-0.1-4.1-1.3-6.2-3.5C374.1,319.7,372.5,317.2,371.2,314.3z"/>
		<path fill="#33AB31" d="M446.1,312.1c-12.1-2.3-22.5-11.4-31.1-27.2c-3.7-6.8-6.2-13.2-7.5-19.3c-1.2-6-1.3-11.6-0.3-16.7
			c1.1-5.1,3.2-9.7,6.5-13.9c3.3-4.1,7.6-7.7,12.9-10.6c5.3-2.9,10.7-4.7,15.9-5.3c5.3-0.6,10.4,0.1,15.3,2c4.9,1.9,9.6,5,14,9.2
			c4.4,4.3,8.5,9.8,12.2,16.5s6.2,13.1,7.4,19.1c1.2,6,1.3,11.6,0.3,16.7c-1.1,5.1-3.3,9.8-6.6,13.9c-3.3,4.1-7.7,7.7-13,10.6
			C463.4,312.1,454.7,313.7,446.1,312.1z M446.7,290.9c5.4,4.9,11.3,5.6,17.6,2.1c3.2-1.7,5.3-4,6.4-6.6c1.1-2.7,1.5-5.5,1.3-8.6
			c-0.2-3.1-1-6.2-2.2-9.4c-1.3-3.2-2.7-6.3-4.3-9.3c-1.5-2.7-3.2-5.7-5.3-8.9c-2-3.2-4.3-6-6.8-8.4s-5.3-4-8.4-4.9
			c-3.1-0.9-6.6-0.2-10.5,1.9c-3.7,2-6,4.6-7,7.5c-0.9,3-1.1,6.1-0.6,9.5c0.6,3.3,1.6,6.6,3.1,9.9c1.5,3.3,2.9,6.1,4.2,8.5
			c2,3.6,3.9,6.6,5.8,9.2S444.1,288.4,446.7,290.9z"/>
		<path fill="#33AB31" d="M569.6,251.8l3.5-74.8c2-0.9,4.6-1.7,7.9-2.3c4.5-0.9,8.2-1.1,11-0.6l1,0.9l-7.8,91.9
			c-4.9,1.5-9.8,2.7-14.8,3.6c-5,0.9-8.7,1-11.2,0.2c-2.5-0.8-4.6-3-6.4-6.5l-36.5-74.4c4.3-2.9,8-4.6,11-5.2
			c3.6-0.7,6.5-0.4,8.5,0.9c2,1.3,3.9,3.7,5.5,7l17.1,35.2c2.7,5.5,5.8,13.1,9.5,22.8C568.3,251.5,568.8,251.9,569.6,251.8z"/>
		<path fill="#33AB31" d="M637.8,236.8l-0.4,9.5l0,0.1c4.1-0.1,7.3-0.1,9.8,0l30.7,0.8c-0.1,3.3-0.3,5.8-0.6,7.5
			c-1.2,6.8-5.8,10.1-13.8,9.9l-35.3-0.9c-3.8-0.1-6.8-1.3-8.9-3.5c-2.1-2.3-3.1-5.3-3-9.1l2-77.7l1-0.9l57.1,1.5
			c0.5,2.6,0.7,5.4,0.6,8.4c-0.1,3-0.8,6.1-2.1,9.4l-36.1-0.9l-0.1,9.5l-0.2,9.3c2.3,0,5.3,0,9,0.1l20.2,0.5c0.7,2.5,1.1,5.3,1,8.5
			c-0.1,3.2-0.6,6.1-1.4,8.7l-29.2-0.8L637.8,236.8z"/>
		<path fill="#33AB31" d="M732.6,224.4l20.2,4.9c9.1,2.3,12.6,7.7,10.4,16.3l-8.5,33.8c-11.9,0.7-24-0.4-36.2-3.5
			c-6.2-1.6-11.4-4-15.6-7.2c-4.2-3.3-7.5-7.2-9.7-11.9c-2.2-4.7-3.5-10-3.7-16c-0.2-6,0.6-12.6,2.4-19.7c2-7.8,4.8-14.3,8.5-19.5
			c3.7-5.2,8-9.3,12.8-12.2c4.8-2.9,9.9-4.7,15.4-5.4c5.5-0.7,10.9-0.3,16.3,1c11.1,2.8,20.8,8.5,29.1,17.1c-0.4,1.4-1.1,2.7-2,3.9
			c-0.9,1.3-1.9,2.5-3.1,3.6c-1.1,1.1-2.4,2.1-3.7,2.9c-1.3,0.8-2.7,1.4-4,1.9c-6-6.4-12.6-10.5-19.9-12.4
			c-14-3.5-23.4,4.5-28.3,24.1c-4.9,19.5-0.2,31,14.1,34.6c2,0.5,3.9,0.9,5.8,1.2c1.9,0.3,3.8,0.5,5.7,0.6l2.2-8.6
			c0.5-2,0.9-3.7,1.4-5.1c0.4-1.4,0.8-2.7,1.1-3.7l-6.4-1.6c-3.7-0.9-6.1-2.3-7.1-4c-1.1-1.8-1.2-4.2-0.5-7.2
			C729.7,229.8,730.9,227.1,732.6,224.4z"/>
		<path fill="#33AB31" d="M793,280.9c-2.1-1.1-3.7-2-4.6-2.6l-14,14.4c-2.1-0.5-4.9-1.7-8.2-3.4c-3.8-2-6.6-4-8.5-6.1l-0.1-1.2
			l67.2-65.2c3.3,1.1,7,2.8,11.1,4.9c4.6,2.4,8.2,4.6,10.6,6.6l-16.1,92.2c-3.5,0-7-0.8-10.4-2.6c-4.1-2.1-6.6-4.3-7.5-6.6
			c-0.9-2.3-0.9-5.7,0-10.3l1.8-8.9c-1.1-0.5-2.6-1.2-4.6-2.3L793,280.9z M800.4,266l4.8,2.3l8.6,4.5c0.4,0.2,1.1,0.6,2,1.1
			c1,0.6,1.7,1,2.1,1.2l1.8-8.3c1.6-7.6,3.7-16.8,6.2-27.6l-0.7-0.4c-2.4,3-8.2,9.5-17.4,19.5L800.4,266z"/>
		<path fill="#33AB31" d="M948.5,304.6l0.1,1.3l-59.9,67.4c-3.2-1.8-6.6-4.2-10.2-7.4c-3.6-3.2-6.6-6.2-9-9.1l16-49.3
			c1.7-5.7,4-12,6.8-19l-0.4-0.2c-7.8,10.4-16.2,20.6-25.2,30.7l-17.5,19.7c-2.4-1.4-5.1-3.4-8-6c-2.9-2.6-5.2-5-6.8-7.1l59.9-67.4
			c3,1.6,6.3,4,9.9,7.2c3.5,3.1,6.5,6.1,8.9,9l-16.1,49c-3,9-5.5,15.8-7.2,20.5l0.6,0.2c7.4-9.9,15.6-20,24.8-30.3l10.7-12.1
			c3.1-3.4,5.9-5.3,8.6-5.5c2.7-0.3,5.6,1,8.7,3.8L948.5,304.6z"/>
	</g>
</g>
<g id="dots">
	<circle cx="240.9" cy="530.8" r="24.7"/>
	<circle cx="1026.9" cy="530.8" r="24.7"/>
</g>
<g id="Layer_10_copy">
	<g>
		<path fill="#FFFFFF" d="M552.2,610.8c-0.1,0.2-0.2,0.3-0.3,0.3C552,611.1,552.1,611,552.2,610.8z"/>
		<path fill="#FFFFFF" d="M555.1,607.6c0.9-1,2.1-2.3,3.4-3.8c0.6-0.7,1.2-1.3,1.7-1.9C558.6,603.7,556.7,605.8,555.1,607.6z"/>
		<path fill="#FFFFFF" d="M551.9,611.1C551.9,611.2,551.9,611.2,551.9,611.1L551.9,611.1z"/>
		<path fill="#FFFFFF" d="M553.3,609.6c-0.5,0.5-0.8,0.9-1.1,1.2C552.5,610.5,552.8,610.1,553.3,609.6z"/>
		<path fill="#FFFFFF" d="M560.2,601.9c0.1-0.1,0.2-0.2,0.3-0.3C560.4,601.7,560.4,601.8,560.2,601.9z"/>
		<path fill="#FFFFFF" d="M506.7,687c-0.3,0.8-0.5,1.7-0.8,2.5C506.2,688.6,506.5,687.8,506.7,687z"/>
		<path fill="#FFFFFF" d="M555,607.7c-0.7,0.7-1.2,1.4-1.7,1.9C553.7,609.1,554.3,608.5,555,607.7z"/>
		<path fill="#FFFFFF" d="M555.1,607.6c0,0-0.1,0.1-0.1,0.1C555,607.7,555.1,607.6,555.1,607.6z"/>
		<path fill="#FFFFFF" d="M561.5,600.5c0.5-0.5,0.9-1,1.3-1.5C562.4,599.5,562,599.9,561.5,600.5z"/>
		<path fill="#FFFFFF" d="M563.9,597.8c0.1-0.1,0.1-0.2,0.2-0.2C564.1,597.6,564,597.7,563.9,597.8z"/>
		<path fill="#FFFFFF" d="M564.1,597.6c0.1-0.1,0.2-0.2,0.2-0.3C564.3,597.4,564.2,597.5,564.1,597.6z"/>
		<path fill="#FFFFFF" d="M560.5,601.6c0.3-0.4,0.6-0.7,0.9-1C561.2,600.8,560.9,601.2,560.5,601.6z"/>
		<path fill="#FFFFFF" d="M564.4,597.3C564.5,597.1,564.6,597.1,564.4,597.3L564.4,597.3z"/>
		<path fill="#FFFFFF" d="M562.8,599c0.2-0.2,0.3-0.4,0.5-0.5C563.1,598.7,563,598.9,562.8,599z"/>
		<path fill="#FFFFFF" d="M563.5,598.2c0.1-0.2,0.3-0.3,0.4-0.4C563.8,597.9,563.7,598.1,563.5,598.2z"/>
		<path fill="#FFFFFF" d="M563.3,598.5c0.1-0.1,0.2-0.2,0.3-0.3C563.5,598.3,563.4,598.4,563.3,598.5z"/>
		<path fill="#FFFFFF" d="M823.5,524.4C765.9,457,674.2,424,588.1,449.5c-89.6,26.5-160.4,114.3-153.9,209.7
			c5.8,73.6,53,135.3,122.6,160.5c105.6,35,205.3-33.4,228.7-90.7c21.1-53.2,9.6-111.6-29.8-151.7c-25.2-23.6-54.9-38.1-90.6-36
			c-43.5,2.5-78.2,31.1-106.4,62.4c-21.9,24.4-42,51.8-51.8,83.2c15.4-45.7,70.9-30,112.9-21.2c37.2,7.8,87.3,0.5,113-41.6
			c-29.7-28.2-79.9-13.5-120.6-13.9c34.3-16.2,90.7-28.3,125.2-5.6c5.2,4.7,9.7,10.4,13.2,17.2c15.5,36.2,13.5,81.3-12.1,112.5
			c-24,29.3-103.3,87.2-198.8,20.4c-36-33.8-60.7-78.5-52.9-127.6c12.4-78,80.4-139.9,156.2-154.9c25.9-5.2,51.9-4.8,77.2,0
			c-3.1-0.8-6.3-1.5-9.5-2.1C751.6,478.3,790.5,498.1,823.5,524.4z M610.1,475.2c-2.4,0.8-4.7,1.5-7,2.4
			C605.4,476.7,607.7,475.9,610.1,475.2z M738.7,605.6c-0.5-0.4-1-0.7-1.5-1C737.7,605,738.2,605.3,738.7,605.6z M743.1,609
			c-1.4-1.2-2.8-2.3-4.3-3.3C740.2,606.7,741.7,607.8,743.1,609z M746.3,611.9c0.6,0.6,1.2,1.2,1.8,1.9
			C747.5,613.2,746.9,612.5,746.3,611.9z M743.2,609.1c0.4,0.3,0.8,0.7,1.2,1C744,609.8,743.6,609.5,743.2,609.1z M744.8,610.5
			c0.4,0.3,0.7,0.7,1.1,1C745.5,611.2,745.2,610.9,744.8,610.5z M756.5,625.3c-0.1-0.2-0.3-0.4-0.4-0.6
			C756.2,624.8,756.3,625,756.5,625.3z M755.2,623.2c-0.1-0.2-0.3-0.5-0.4-0.7C754.9,622.7,755.1,623,755.2,623.2z M753.9,621.1
			c-0.1-0.2-0.3-0.4-0.4-0.6C753.6,620.7,753.7,620.9,753.9,621.1z M752.2,618.7c-0.2-0.2-0.4-0.5-0.6-0.7
			C751.8,618.2,752,618.5,752.2,618.7z M750.8,617c-0.2-0.3-0.5-0.6-0.7-0.8C750.4,616.4,750.6,616.7,750.8,617z M749.4,615.3
			c-0.3-0.3-0.5-0.6-0.8-0.9C748.9,614.7,749.2,615,749.4,615.3z M492.2,572.9c-0.6,1.1-1.1,2.2-1.6,3.2
			C491.1,575,491.7,574,492.2,572.9z M496.7,564.8c0.6-1,1.2-1.9,1.7-2.9C497.9,562.9,497.3,563.9,496.7,564.8z M500.6,558.6
			c0.8-1.3,1.6-2.5,2.5-3.8C502.2,556.1,501.4,557.3,500.6,558.6z M504,553.5c2.2-3.2,4.4-6.2,6.8-9.3
			C508.4,547.2,506.1,550.3,504,553.5z M560.1,499c1.2-0.8,2.5-1.6,3.8-2.4C562.6,497.4,561.4,498.2,560.1,499z M550.7,505.5
			c0.6-0.4,1.1-0.8,1.7-1.2C551.9,504.7,551.3,505.1,550.7,505.5z M575.9,489.6c1.3-0.7,2.6-1.4,3.8-2
			C578.5,488.3,577.2,489,575.9,489.6z M637.2,468.6c0.7-0.1,1.3-0.2,2-0.3C638.6,468.4,637.9,468.5,637.2,468.6z M705.3,469.2
			c1.2,0.2,2.4,0.4,3.6,0.6C707.8,469.6,706.5,469.4,705.3,469.2z M643.3,467.7c0.8-0.1,1.6-0.2,2.4-0.3
			C644.9,467.5,644.1,467.6,643.3,467.7z M649.4,467c0.9-0.1,1.7-0.2,2.6-0.2C651.1,466.8,650.3,466.9,649.4,467z M655.5,466.5
			c0.9-0.1,1.7-0.1,2.6-0.2C657.2,466.4,656.4,466.4,655.5,466.5z M661.6,466.2c0.9,0,1.7-0.1,2.6-0.1
			C663.3,466.1,662.5,466.1,661.6,466.2z M667.9,466c0.8,0,1.6,0,2.4,0C669.5,466,668.7,466,667.9,466z M676,466.1
			c0.9,0,1.8,0.1,2.8,0.1C677.9,466.2,676.9,466.1,676,466.1z M682,466.4c1,0.1,2.1,0.1,3.1,0.2C684.1,466.5,683,466.5,682,466.4z
			 M687.9,466.9c1.1,0.1,2.2,0.2,3.2,0.3C690.1,467.1,689,467,687.9,466.9z M693.8,467.5c1.1,0.1,2.2,0.3,3.3,0.4
			C696,467.8,694.9,467.6,693.8,467.5z M699.6,468.3c1.1,0.2,2.3,0.3,3.4,0.5C701.9,468.6,700.8,468.4,699.6,468.3z"/>
	</g>
	<g>
	</g>
	<g>
	</g>
	<g>
	</g>
	<g>
	</g>
	<g>
	</g>
	<g>
	</g>
	<g>
	</g>
	<g>
	</g>
	<g>
	</g>
	<g>
	</g>
	<g>
	</g>
	<g>
	</g>
	<g>
	</g>
	<g>
	</g>
	<g>
	</g>
</g>
</svg>
