<svg version="1.1" xmlns="http://www.w3.org/2000/svg" xmlns:xlink="http://www.w3.org/1999/xlink" x="0px" y="0px"
	 viewBox="0 0 500 500" style="enable-background:new 0 0 500 500;" xml:space="preserve">
<style type="text/css">
	.st0{display:none;}
	.st1{display:inline;}
	.st2{fill:#FFFFFF;}
	.st3{fill:#EEEEEE;stroke:#EEEEEE;stroke-width:20;stroke-miterlimit:10;}
	.st4{fill:#E09498;}
	.st5{fill:#AD7676;}
	.st6{fill:#E8BAC4;}
	.st7{fill:#020202;}
</style>
<g id="Layer_1" class="st0">
	<g class="st1">
		<path d="M480,223c0,19.3,0,38.7,0,58c-0.4,1.1-0.8,2.1-1.1,3.2c-3.7,15-6.1,30.6-11.4,45.1c-21.7,58.8-60.9,102.2-117.3,129.6
			c-21.4,10.4-43.9,17.3-67.7,19.9c-3.9,0.4-7.7,1.5-11.5,2.3c-12.7,0-25.3,0-38,0c-1.2-0.4-2.4-1-3.7-1.2c-8-1.3-16.1-2.1-24-3.8
			c-30.1-6.4-57.9-18.2-83.3-35.9c-17.6-12.2-32.8-26.7-46.6-42.8c-14.4-16.7-25.3-35.6-33.9-55.7c-7.2-16.9-12.7-34.4-15.1-52.7
			c-0.8-6.3-2.2-12.6-3.3-18.9c0-12.3,0-24.7,0-37c0.4-1.2,1-2.5,1.2-3.7c1.8-20.9,7.2-40.9,14.6-60.4c10.8-28.2,26.9-53.2,47.8-75
			c10.1-10.5,20.5-20.5,33.5-27.6c7.9-4.3,14.6-11,22.7-15.1c11.4-5.8,23.5-10.4,35.4-15.3c19.3-8,39.8-11.1,60.5-12.4
			c16.7-1,33.4-0.1,50.1,2.7c29.4,4.8,56.7,15.1,82.1,30.6c6.1,3.7,11.4,8.7,17.2,12.9c3.9,2.8,8.2,5,11.9,8
			c15.5,13,29,27.8,40.4,44.7c9.7,14.5,18.9,29.2,24,46.1c3.4,11.2,7.8,22.1,11.2,33.3C477.5,208.7,478.5,215.9,480,223z
			 M259.7,389.7c0.2-0.5,0.4-1,0.7-1.5c-5.8-5.6-11.7-11.2-17.4-16.9c-5.8-5.7-11.5-11.4-17.2-17.2c24.3,9.5,46.6,7.9,64.9-11.1
			c18.4-19.1,19.6-41.5,8.5-65.2c19.9,20,39.7,40,59.9,60.3c1.4-1.6,2.5-2.5,3.3-3.7c31.6-45.4,36.2-93.3,12.9-143.6
			c-1.4-3-1.5-5.3,0-8.3c9.7-19.9,14.5-41,14.6-63.2c0-4.1-1.2-5.6-5.4-5.6c-22,0-43,4.3-62.8,13.9c-3.8,1.8-6.5,1.6-10.1-0.2
			c-17.1-8.4-35.4-12.8-54.3-13.6c-23.2-0.9-45.4,3.9-66.2,14.2c-3,1.5-5.5,1.3-8.4-0.2c-19.6-9.7-40.4-14.1-62.2-14.2
			c-4.9,0-6.7,1.4-6.7,6.6c0,22,4.9,42.9,14.2,62.8c0.9,2,1.5,5.1,0.6,6.9c-11.6,24.1-16.7,49.3-13.8,76.1
			c3.7,34.1,17.6,63.4,42.9,86.6c24.8,22.7,54.2,35.3,87.9,37C250.2,389.9,255,389.7,259.7,389.7z"/>
		<path class="st2" d="M480,223c-1.5-7.1-2.5-14.3-4.6-21.2c-3.4-11.2-7.8-22.1-11.2-33.3c-5.1-16.9-14.2-31.6-24-46.1
			c-11.3-16.8-24.9-31.6-40.4-44.7c-3.6-3.1-8-5.2-11.9-8c-5.8-4.2-11.1-9.2-17.2-12.9c-25.4-15.5-52.6-25.7-82.1-30.6
			c-16.7-2.7-33.4-3.7-50.1-2.7c-20.7,1.2-41.1,4.4-60.5,12.4c-11.9,4.9-24,9.5-35.4,15.3c-8,4.1-14.7,10.7-22.7,15.1
			c-13,7.1-23.5,17.1-33.5,27.6c-20.9,21.8-37.1,46.8-47.8,75c-7.4,19.4-12.8,39.5-14.6,60.4c-0.1,1.3-0.8,2.5-1.2,3.7
			c0-70.6,0-141.3,0-211.9c152.3,0,304.7,0,457,0C480,88.4,480,155.7,480,223z"/>
		<path class="st2" d="M23,270c1.1,6.3,2.4,12.6,3.3,18.9c2.4,18.3,7.9,35.8,15.1,52.7c8.6,20.1,19.5,39.1,33.9,55.7
			c13.8,16.1,29.1,30.6,46.6,42.8c25.5,17.7,53.2,29.5,83.3,35.9c7.9,1.7,16,2.5,24,3.8c1.3,0.2,2.5,0.8,3.7,1.2c-70,0-140,0-210,0
			C23,410.7,23,340.3,23,270z"/>
		<path class="st2" d="M271,481c3.8-0.8,7.6-1.8,11.5-2.3c23.8-2.5,46.3-9.5,67.7-19.9c56.5-27.4,95.7-70.8,117.3-129.6
			c5.3-14.5,7.7-30,11.4-45.1c0.3-1.1,0.7-2.2,1.1-3.2c0,66.7,0,133.3,0,200C410.3,481,340.7,481,271,481z"/>
		<path class="st2" d="M259.7,389.7c-4.7,0-9.5,0.2-14.2,0c-33.8-1.7-63.2-14.3-87.9-37c-25.3-23.2-39.2-52.5-42.9-86.6
			c-2.9-26.8,2.2-51.9,13.8-76.1c0.9-1.8,0.3-4.9-0.6-6.9c-9.3-19.9-14.1-40.8-14.2-62.8c0-5.1,1.8-6.6,6.7-6.6
			c21.8,0.1,42.6,4.6,62.2,14.2c2.9,1.4,5.3,1.7,8.4,0.2c20.8-10.3,43-15.2,66.2-14.2c19,0.8,37.2,5.2,54.3,13.6
			c3.6,1.8,6.3,2,10.1,0.2c19.8-9.7,40.8-13.9,62.8-13.9c4.2,0,5.4,1.5,5.4,5.6c-0.1,22.2-4.8,43.3-14.6,63.2c-1.5,3-1.4,5.3,0,8.3
			c23.3,50.3,18.7,98.2-12.9,143.6c-0.8,1.2-1.9,2.1-3.3,3.7c-20.2-20.3-40.1-40.3-59.9-60.3c11.1,23.8,9.9,46.1-8.5,65.2
			c-18.3,19-40.6,20.5-64.9,11.1c5.7,5.7,11.4,11.5,17.2,17.2c5.8,5.7,11.6,11.2,17.4,16.9C260.2,388.7,259.9,389.2,259.7,389.7z
			 M138.5,166.9c9.6-9.5,19.3-19.1,28.5-28.3c-10-4.1-22.8-7.5-36.8-8.2C131.8,144.3,133.7,157.4,138.5,166.9z M364.8,167.5
			c4.3-10.6,7.8-23.3,8.6-37.1c-14,1-26.9,4.2-36.9,8.4C345.6,148,355.1,157.6,364.8,167.5z M175.4,236.5c-8.5,0-15.4,6.9-15.5,15.5
			c-0.1,8.7,7.1,15.6,16,15.5c8.3-0.1,15.1-6.9,15.3-15.2C191.3,243.5,184.3,236.5,175.4,236.5z M344.1,252.4
			c0-8.5-6.9-15.6-15.4-15.5c-8.8,0-15.6,6.6-15.8,15.2c-0.2,8.6,7.1,16.1,15.7,16C336.8,268,344.1,260.7,344.1,252.4z M233.5,293.2
			c-7,0-13.4,5.6-13,12.2c0.5,8.2,5.2,12.5,13.2,13.1c6.2,0.5,12.2-6.1,12.2-12.7C245.8,298.5,240.8,293.3,233.5,293.2z
			 M258.1,305.4c-0.1,6.8,5.7,13.2,12.2,13.2c6.3,0.1,13.4-6.8,13.3-13c-0.1-6.9-5.8-12.5-12.8-12.6
			C263.7,293,258.2,298.4,258.1,305.4z"/>
		<path d="M138.5,166.9c-4.8-9.5-6.8-22.6-8.3-36.5c14.1,0.7,26.9,4.1,36.8,8.2C157.8,147.8,148.1,157.4,138.5,166.9z"/>
		<path d="M364.8,167.5c-9.7-9.8-19.2-19.5-28.3-28.8c10-4.1,22.8-7.4,36.9-8.4C372.7,144.2,369.1,156.9,364.8,167.5z"/>
		<path d="M175.4,236.5c8.9,0,15.9,7,15.7,15.8c-0.1,8.3-6.9,15.1-15.3,15.2c-8.9,0.1-16-6.8-16-15.5
			C160,243.4,166.9,236.5,175.4,236.5z"/>
		<path d="M344.1,252.4c0,8.4-7.3,15.6-15.6,15.6c-8.5,0-15.8-7.4-15.7-16c0.2-8.6,7-15.1,15.8-15.2
			C337.2,236.8,344.1,243.8,344.1,252.4z"/>
		<path d="M233.5,293.2c7.3,0,12.4,5.2,12.4,12.7c0,6.5-5.9,13.2-12.2,12.7c-8-0.6-12.8-4.9-13.2-13.1
			C220.1,298.8,226.4,293.2,233.5,293.2z"/>
		<path d="M258.1,305.4c0.1-7.1,5.6-12.4,12.8-12.3c7,0.1,12.7,5.7,12.8,12.6c0.1,6.2-7,13.1-13.3,13
			C263.8,318.6,258,312.3,258.1,305.4z"/>
	</g>
</g>
<g id="Layer_2">
	<circle class="st3" cx="249.9" cy="252.7" r="228.3"/>
	<circle class="st4" cx="249.9" cy="252.7" r="139"/>
</g>
<g id="Layer_8">
	<path class="st4" d="M125.5,190.7c1.9-4.4-6.1-21.2-10.2-38.7s-5.1-34.1-1.5-37.4c4.2-3.9,28.6,0.5,42.7,4.1
		c16.7,4.3,25.9,11.8,29.4,10.4"/>
</g>
<g id="Layer_8_copy_2">
	<path class="st5" d="M131.2,161.5c0,0-2.7-9.5-4.6-17.3c-1.8-7.8-2.3-15.3-0.7-16.8c1.9-1.8,12.8,0.2,19.2,1.9
		c7.5,1.9,13.2,4.7,13.2,4.7"/>
</g>
<g id="Layer_8_copy">
	<path class="st4" d="M375,190.7c-1.9-4.4,6.1-21.2,10.2-38.7s5.1-34.1,1.5-37.4c-4.2-3.9-28.6,0.5-42.7,4.1
		c-16.7,4.3-25.9,11.8-29.4,10.4"/>
</g>
<g id="Layer_8_copy_3">
	<path class="st5" d="M367,161.5c0,0,2.7-9.5,4.6-17.3c1.8-7.8,2.3-15.3,0.7-16.8c-1.9-1.8-12.8,0.2-19.2,1.9
		c-7.5,1.9-13.2,4.7-13.2,4.7"/>
</g>
<g id="Layer_7">
	<circle class="st6" cx="249.9" cy="300.3" r="54.2"/>
</g>
<g id="Layer_3">
	<circle class="st7" cx="175.5" cy="252.4" r="15.6"/>
</g>
<g id="Layer_3_copy">
	<circle class="st7" cx="328.5" cy="252.4" r="15.6"/>
</g>
<g id="Layer_3_copy_2">
	<circle class="st5" cx="270.7" cy="305.9" r="12.8"/>
</g>
<g id="Layer_3_copy_3">
	<circle class="st5" cx="232.7" cy="305.9" r="12.8"/>
</g>
</svg>
