<?xml version="1.0" encoding="UTF-8"?>
<svg width="39px" height="65px" viewBox="0 0 39 65" version="1.1" xmlns="http://www.w3.org/2000/svg" xmlns:xlink="http://www.w3.org/1999/xlink">
    <!-- Generator: Sketch 40.3 (33839) - http://www.bohemiancoding.com/sketch -->
    <title>1308001441853739087google maps pin</title>
    <desc>Created with Sketch.</desc>
    <defs></defs>
    <g id="Page-1" stroke="none" stroke-width="1" fill="none" fill-rule="evenodd">
        <g id="1308001441853739087google-maps-pin" transform="translate(1.000000, 1.000000)">
            <g id="Group" stroke="#000000" stroke-width="1.31050767" fill="#FFFFFF">
                <path d="M18.5508883,59.9868595 C17.1809341,53.2465643 14.7655091,47.6374498 11.839894,42.4388076 C9.66982808,38.5826564 7.15591309,35.023353 4.82989589,31.2839787 C4.05342598,30.0356671 3.38332665,28.7169067 2.63721299,27.4213813 C1.14533906,24.8309327 -0.0642464183,21.8274616 0.0126160458,17.931464 C0.0877115568,14.1248642 1.18615568,11.0713459 2.77012321,8.57472255 C5.37528367,4.46840614 9.73902197,1.10167651 15.5941041,0.21690673 C20.3813457,-0.506493506 24.8697249,0.715678867 28.0526437,2.58106257 C30.6535989,4.10543093 32.6677841,6.14164109 34.1988138,8.54139315 C35.7968462,11.0460921 36.8972693,14.0051476 36.989575,17.8648406 C37.0368233,19.8422904 36.7137536,21.6735301 36.2586218,23.1925148 C35.7980124,24.7300236 35.057235,26.015242 34.3981614,27.3880519 C33.1116074,30.0678276 31.4986266,32.5231877 29.8798854,34.98 C25.0583295,42.297804 20.5328443,49.7607556 18.5508883,59.9868595 L18.5508883,59.9868595 Z" id="Shape"></path>
            </g>
            <g id="shopping-cart" transform="translate(6.502388, 9.456907)" fill="#000000">
                <path d="M22.0964361,3.63630055 C21.6905261,3.14045421 21.0746626,2.86446426 20.4354709,2.86446426 L6.5645451,2.86446426 C6.16796633,2.86446426 5.79005008,2.97673136 5.4634558,3.17787657 L4.75427964,0.69396706 C4.63763883,0.286998835 4.26905385,0.00633109295 3.84914691,0.00633109295 L2.77138578,0.00633109295 L0.713841791,0.00633109295 C0.321928651,0.00633109295 0,0.3244212 0,0.722033834 L0,0.796878565 C0,1.1898134 0.317263018,1.51258131 0.713841791,1.51258131 L3.41057745,1.51258131 L4.78693907,6.39152222 L6.68118591,13.1228702 C5.60342478,13.3941824 4.8056016,14.3718417 4.8056016,15.531935 C4.8056016,16.8463956 5.82737515,17.9269664 7.11975538,18.0111667 C7.01244583,18.3199012 6.96112387,18.6613803 6.98911767,19.012215 C7.08243032,20.2003751 8.04821627,21.1593232 9.23328696,21.2388457 C10.6469736,21.3370795 11.8273787,20.2097307 11.8273787,18.8157476 C11.8273787,18.5350798 11.7807224,18.2684455 11.6920754,18.0158445 L14.52878,18.0158445 C14.4121392,18.347968 14.3654828,18.7175139 14.4074735,19.0964153 C14.5381113,20.2471531 15.4852347,21.1546454 16.6423116,21.2388457 C18.0559982,21.3370795 19.2410689,20.2144085 19.2410689,18.8157476 C19.2410689,17.4638646 18.1213171,16.3832938 16.7776149,16.3832938 L7.30171505,16.3832938 C6.83981742,16.3832938 6.44790428,16.0231035 6.42924175,15.5646796 C6.41057922,15.0781888 6.79782673,14.6805762 7.27838689,14.6805762 L8.70140484,14.6805762 L16.4136956,14.6805762 L18.5832147,14.6805762 C19.5443351,14.6805762 20.3841489,14.021007 20.6174306,13.0854479 L22.5023461,5.47935206 C22.6656433,4.82446066 22.516343,4.15553587 22.0964361,3.63630055 L22.0964361,3.63630055 Z M16.8196056,18.0111667 C17.2581751,18.0111667 17.6174288,18.371357 17.6174288,18.8110698 C17.6174288,19.2507826 17.2581751,19.6109728 16.8196056,19.6109728 C16.3810361,19.6109728 16.0217824,19.2507826 16.0217824,18.8110698 C16.0217824,18.371357 16.3763705,18.0111667 16.8196056,18.0111667 L16.8196056,18.0111667 Z M9.40591537,18.0111667 C9.84448483,18.0111667 10.2037385,18.371357 10.2037385,18.8110698 C10.2037385,19.2507826 9.84448483,19.6109728 9.40591537,19.6109728 C8.9673459,19.6109728 8.60809219,19.2507826 8.60809219,18.8110698 C8.60809219,18.371357 8.96268027,18.0111667 9.40591537,18.0111667 L9.40591537,18.0111667 Z M6.47589808,6.38216662 L6.11197873,5.09577281 C6.05599114,4.89930539 6.1353069,4.75429372 6.19129449,4.68412679 C6.24261645,4.61395985 6.3639229,4.49701496 6.5645451,4.49701496 L8.08554133,4.49701496 L8.50078264,6.38684442 L6.47589808,6.38684442 L6.47589808,6.38216662 L6.47589808,6.38216662 Z M6.93313008,8.01003953 L8.85537072,8.01003953 L9.23795259,9.75953512 L7.4230215,9.75953512 L6.93313008,8.01003953 L6.93313008,8.01003953 Z M8.70140484,13.0433477 C8.49145137,13.0433477 8.30482607,12.9030138 8.24883848,12.6971908 L7.8802535,11.387408 L9.59254067,11.387408 L9.95646002,13.0386699 L8.70140484,13.0386699 L8.70140484,13.0433477 L8.70140484,13.0433477 Z M12.7651709,13.0433477 L11.6174252,13.0433477 L11.2535059,11.3920858 L12.7605052,11.3920858 L12.7605052,13.0433477 L12.7651709,13.0433477 L12.7651709,13.0433477 Z M12.7651709,9.75953512 L10.8989178,9.75953512 L10.5163359,8.01003953 L12.7651709,8.01003953 L12.7651709,9.75953512 L12.7651709,9.75953512 Z M12.7651709,6.38216662 L10.1617479,6.38216662 L9.74650655,4.49233716 L12.7651709,4.49233716 L12.7651709,6.38216662 L12.7651709,6.38216662 Z M15.6765256,13.0433477 L14.3934766,13.0433477 L14.3934766,11.3920858 L16.0217824,11.3920858 L15.6765256,13.0433477 L15.6765256,13.0433477 Z M16.3670392,9.75953512 L14.3934766,9.75953512 L14.3934766,8.01003953 L16.7356242,8.01003953 L16.3670392,9.75953512 L16.3670392,9.75953512 Z M14.3934766,6.38216662 L14.3934766,4.49233716 L17.4727942,4.49233716 L17.0762154,6.38216662 L14.3934766,6.38216662 L14.3934766,6.38216662 Z M19.0451124,12.6878352 C18.9937904,12.898336 18.8071651,13.0480255 18.5878804,13.0480255 L17.3374908,13.0480255 L17.6874133,11.3967636 L19.367041,11.3967636 L19.0451124,12.6878352 L19.0451124,12.6878352 Z M19.7682854,9.75953512 L18.0280045,9.75953512 L18.3965894,8.01003953 L20.2021893,8.01003953 L19.7682854,9.75953512 L19.7682854,9.75953512 Z M20.9253623,5.07706163 L20.6034337,6.37748883 L18.7371806,6.37748883 L19.1337594,4.48765937 L20.4681303,4.48765937 C20.6687525,4.48765937 20.7853933,4.59992646 20.8367153,4.6700934 C20.8927029,4.74026034 20.9766843,4.885272 20.9253623,5.07706163 L20.9253623,5.07706163 Z" id="Shape"></path>
            </g>
        </g>
    </g>
</svg>