<?xml version="1.0" encoding="UTF-8"?>
<svg width="27px" height="61px" viewBox="0 0 27 61" version="1.1" xmlns="http://www.w3.org/2000/svg" xmlns:xlink="http://www.w3.org/1999/xlink">
    <!-- Generator: Sketch 39 (31667) - http://www.bohemiancoding.com/sketch -->
    <title>vegan</title>
    <desc>Created with Sketch.</desc>
    <defs></defs>
    <g id="Page-1" stroke="none" stroke-width="1" fill="none" fill-rule="evenodd">
        <g id="vegan" transform="translate(0.000000, -1.000000)">
            <g id="Layer_8">
                <g id="vegetarian-mark_1_" transform="translate(5.244508, 0.342385)" fill="#017F00">
                    <g id="Group_3_" transform="translate(9.000000, 10.510981) scale(1, -1) translate(-9.000000, -10.510981) translate(0.000000, 0.510981)">
                        <path d="M16.8,19.4 C16.4,19.3 15.5,19.1 14.8,18.9 C13.1,18.6 12.8,18.5 12.1,17.9 C11,17.1 10.3,15.5 10.3,14.1 C10.3,13.6 10.4,13.2 10.5,13.3 C10.5,13.3 10.6,13.5 10.7,13.6 C11,14.4 12,15.6 12.8,16.2 C13.2,16.5 14,16.9 14,16.7 C14,16.6 13.7,16.3 13.4,15.9 C13.1,15.6 13,15.4 12.4,14.6 C11.8,13.7 11,12.1 10.5,10.6 C10,9.2 9.6,8.1 9.3,7.3 C8.9,5.9 8.5,4.8 8.4,4.7 C8.3,4.7 8.1,5.4 7.6,7.3 C6.8,10.3 6.5,11.3 5.7,13.2 C5.2,14.5 4.5,15.5 3,17 C2.2,18 1,18.8 0.4,19.1 C0,19.3 -0.1,19.2 0.3,18.8 C1.9,17 2.8,15.7 3.7,13.9 C4.5,12.3 5.1,10.8 6.1,7.2 C6.4,6.3 6.9,3.9 7.1,3 C7.3,2 7.5,1 7.6,0.8 C7.6,0.8 7.7,0.7 7.8,0.7 L9,0.7 C9.3,0.8 9.3,1 9.7,3.5 C10,5.2 10.2,6.2 10.6,7.8 C11.3,10.4 12.1,12.3 12.6,12.6 C12.7,12.6 13,12.7 13.4,12.8 C14.8,13 15.9,13.6 16.7,14.6 C17.2,15.2 17.4,15.7 17.5,17.3 C17.6,18.1 17.6,18.4 17.8,18.9 C17.9,19.2 18,19.5 18,19.6 C17.8,19.6 17.7,19.6 16.8,19.4 L16.8,19.4 L16.8,19.4 Z" id="Shape_3_"></path>
                    </g>
                </g>
                <g id="Group_2_" transform="translate(0.000000, 18.000000)" fill="#F7931E">
                    <path d="M13.5,43.8 C12.5,39 10.8,35 8.7,31.2 C7.1,28.4 5.4,25.9 3.7,23.2 C3.1,22.3 2.7,21.4 2.1,20.4 C1,18.5 0.2,16.4 0.2,13.6 C0.3,10.9 1,8.7 2.2,6.9 C4.1,4 7.2,1.6 11.4,0.9 C14.8,0.4 18,1.3 20.3,2.6 C22.2,3.7 23.6,5.1 24.7,6.9 C25.8,8.7 26.6,10.8 26.7,13.6 C26.7,15 26.5,16.3 26.2,17.4 C25.9,18.5 25.3,19.4 24.9,20.4 C24,22.3 22.8,24.1 21.7,25.8 C18.2,31.1 15,36.4 13.5,43.8 L13.5,43.8 L13.5,43.8 Z" id="Shape_2_"></path>
                </g>
                <circle id="Oval" fill="#ED7532" cx="13.7" cy="31.1" r="6.2"></circle>
            </g>
        </g>
    </g>
</svg>