<?xml version="1.0" encoding="UTF-8"?>
<svg width="39px" height="65px" viewBox="0 0 39 65" version="1.1" xmlns="http://www.w3.org/2000/svg" xmlns:xlink="http://www.w3.org/1999/xlink">
    <!-- Generator: Sketch 40.3 (33839) - http://www.bohemiancoding.com/sketch -->
    <title>1308001441853739087google maps pin</title>
    <desc>Created with Sketch.</desc>
    <defs></defs>
    <g id="Page-1" stroke="none" stroke-width="1" fill="none" fill-rule="evenodd">
        <g id="1308001441853739087google-maps-pin" transform="translate(1.000000, 1.000000)">
            <g id="Group" stroke="#000000" stroke-width="1.31050767" fill="#017F00">
                <path d="M18.5508883,59.9868595 C17.1809341,53.2465643 14.7655091,47.6374498 11.839894,42.4388076 C9.66982808,38.5826564 7.15591309,35.023353 4.82989589,31.2839787 C4.05342598,30.0356671 3.38332665,28.7169067 2.63721299,27.4213813 C1.14533906,24.8309327 -0.0642464183,21.8274616 0.0126160458,17.931464 C0.0877115568,14.1248642 1.18615568,11.0713459 2.77012321,8.57472255 C5.37528367,4.46840614 9.73902197,1.10167651 15.5941041,0.21690673 C20.3813457,-0.506493506 24.8697249,0.715678867 28.0526437,2.58106257 C30.6535989,4.10543093 32.6677841,6.14164109 34.1988138,8.54139315 C35.7968462,11.0460921 36.8972693,14.0051476 36.989575,17.8648406 C37.0368233,19.8422904 36.7137536,21.6735301 36.2586218,23.1925148 C35.7980124,24.7300236 35.057235,26.015242 34.3981614,27.3880519 C33.1116074,30.0678276 31.4986266,32.5231877 29.8798854,34.98 C25.0583295,42.297804 20.5328443,49.7607556 18.5508883,59.9868595 L18.5508883,59.9868595 Z" id="Shape"></path>
            </g>
            <g id="vegetarian-mark" transform="translate(7.244508, 10.342385)" fill="#FFFFFF">
                <g id="Group" transform="translate(11.520535, 12.255963) scale(1, -1) translate(-11.520535, -12.255963) translate(0.000000, 0.000945)">
                    <path d="M21.7342628,24.235189 C21.1840283,24.0903984 20.0216579,23.8283963 19.1550386,23.6560266 C16.9472226,23.2216547 16.5964481,23.0906537 15.612904,22.3598059 C14.2166839,21.3186925 13.2400177,19.3054137 13.2468956,17.4782942 C13.2537735,16.7819203 13.3569425,16.2854954 13.4738673,16.4164964 C13.5013791,16.4509704 13.5976701,16.6509193 13.6802053,16.857763 C14.0997591,17.8712972 15.3171529,19.4157303 16.3557205,20.25 C16.8853212,20.677477 17.9514006,21.0980592 17.9514006,20.8774259 C17.9514006,20.8015832 17.5868702,20.3465271 17.1535606,19.8914709 C16.7477626,19.4570991 16.610204,19.2778345 15.8467536,18.1677732 C15.0557915,17.0025536 14.0241018,14.9203269 13.3294308,13.0656282 C12.6553935,11.2660878 12.1601825,9.8319714 11.8300418,8.75638407 C11.2729293,6.91547497 10.7708404,5.46067416 10.6814272,5.43309499 C10.5713803,5.39172625 10.2687514,6.37768131 9.6359817,8.82533197 C8.65243753,12.6588355 8.23288372,13.9757406 7.22870575,16.3751277 C6.54091263,18.0091931 5.6330257,19.3192033 3.78974012,21.3255873 C2.77868423,22.4356486 1.3411966,23.4974464 0.474577257,23.7870276 C-0.0894131064,23.9800817 -0.137558625,23.8835546 0.288873113,23.4078141 C2.29722904,21.139428 3.45959942,19.4570991 4.69074912,17.0646067 C5.72931674,15.0306435 6.44462159,13.0104699 7.7445506,8.37717058 C8.0746913,7.1912666 8.80375201,4.17134831 9.03760168,2.99923391 C9.29896306,1.69611849 9.58783618,0.420582227 9.66349342,0.220633299 C9.69100515,0.158580184 9.79417412,0.0758426966 9.89734308,0.0482635342 C10.1311927,-0.0137895812 11.2591735,-0.0137895812 11.4999011,0.0482635342 C11.8575535,0.151685393 11.9263328,0.434371808 12.4215439,3.68871297 C12.7516846,5.88815117 13.0336797,7.20505618 13.5976701,9.1700715 C14.5537025,12.5209397 15.5716364,14.9754852 16.1906502,15.375383 C16.2800633,15.4305414 16.7202509,15.540858 17.1810723,15.6167007 C18.9693344,15.9131767 20.4068221,16.7060776 21.4247559,17.9678243 C22.1056711,18.8089888 22.2844973,19.4295199 22.4564456,21.4979571 C22.5458587,22.5942288 22.6008821,22.9044944 22.8072201,23.5594995 C22.9379008,23.9869765 23.0273139,24.3730848 23.013558,24.4213483 C22.9654125,24.5454545 22.8553656,24.531665 21.7342628,24.235189 L21.7342628,24.235189 Z" id="Shape"></path>
                </g>
            </g>
        </g>
    </g>
</svg>