<?xml version="1.0" encoding="UTF-8"?>
<svg width="27px" height="44px" viewBox="0 0 27 44" version="1.1" xmlns="http://www.w3.org/2000/svg" xmlns:xlink="http://www.w3.org/1999/xlink">
    <!-- Generator: Sketch 39 (31667) - http://www.bohemiancoding.com/sketch -->
    <title>logo-leaf-in-marker</title>
    <desc>Created with Sketch.</desc>
    <defs>
        <linearGradient x1="97.8495848%" y1="35.4059516%" x2="2.17363322%" y2="64.5961246%" id="linearGradient-1">
            <stop stop-color="#98DB3F" offset="0%"></stop>
            <stop stop-color="#2FC63F" offset="100%"></stop>
        </linearGradient>
    </defs>
    <g id="Page-1" stroke="none" stroke-width="1" fill="none" fill-rule="evenodd">
        <g id="logo-leaf-in-marker">
            <g id="m_x5F_marker">
                <g id="m_x5F_orange_x5F_marker" fill="#F7931E">
                    <path d="M13.5671946,43.9509066 C12.5653846,39.0170153 10.8061086,34.911576 8.68031674,31.106834 C7.09819005,28.2839609 5.27171946,25.6758717 3.56742081,22.9450488 C2.99932127,22.0306834 2.51674208,21.0733612 1.97307692,20.1221757 C0.891855204,18.2320781 0.00610859729,16.0351464 0.0610859729,13.18159 C0.122171946,10.3894003 0.916289593,8.16178522 2.07081448,6.33919107 C3.97058824,3.33835425 7.14705882,0.871408647 11.4108597,0.214783821 C14.8927602,-0.319107392 18.1608597,0.582984658 20.4882353,1.94532775 C22.3757919,3.06220363 23.8540724,4.55341702 24.9597285,6.30850767 C26.1264706,8.14951185 26.9205882,10.3034868 26.9877828,13.1263598 C27.0244344,14.5746165 26.7861991,15.9124128 26.4563348,17.0292887 C26.1264706,18.1584379 25.5828054,19.0912134 25.1002262,20.1037657 C24.1656109,22.0613668 22.9866516,23.8655509 21.8076923,25.651325 C18.3135747,31.0025105 15.0088235,36.4702929 13.5671946,43.9509066 L13.5671946,43.9509066 L13.5671946,43.9509066 Z" id="Shape"></path>
                </g>
                <ellipse id="m_x5F_green_x5F_gradient" stroke="#ED7532" stroke-width="0.916289593" fill="url(#linearGradient-1)" cx="13.7199095" cy="12.5740586" rx="8.82692308" ry="8.86750349"></ellipse>
                <g id="m_x5F_green_x5F_leaves" transform="translate(7.085973, 5.093445)">
                    <g id="middle_x5F_leaf_2_" transform="translate(3.848416, 5.400279)" fill="#009245">
                        <path d="M6.7438914,2.0251046 C6.09638009,0.840725244 4.83800905,0.0306834031 3.39638009,0.0306834031 C1.95475113,0.0306834031 0.69638009,0.834588563 0.0488687783,2.0251046 C0.69638009,3.20948396 1.95475113,4.0195258 3.39638009,4.0195258 C4.84411765,4.0195258 6.09638009,3.21562064 6.7438914,2.0251046 L6.7438914,2.0251046 Z" id="Shape"></path>
                    </g>
                    <g id="upper_x5F_leaf_3_" fill="#009245">
                        <path d="M6.89049774,0.10432357 C5.22285068,-0.251603905 3.26199095,0.337517434 1.8020362,1.81032078 C0.342081448,3.27698745 -0.250452489,5.24686192 0.103846154,6.92217573 C1.77149321,7.27810321 3.73235294,6.68898187 5.19230769,5.21617852 C6.65226244,3.74337517 7.24479638,1.77963738 6.89049774,0.10432357 L6.89049774,0.10432357 Z" id="Shape"></path>
                    </g>
                    <g id="bottom_x5F_leaf_2_" transform="translate(0.000000, 7.854951)" fill="#009245">
                        <path d="M6.89049774,6.92217573 C5.22285068,7.27810321 3.26199095,6.68898187 1.8020362,5.21617852 C0.342081448,3.74951185 -0.250452489,1.77963738 0.103846154,0.10432357 C1.77149321,-0.251603905 3.73235294,0.337517434 5.19230769,1.81032078 C6.65837104,3.27698745 7.24479638,5.24072524 6.89049774,6.92217573 L6.89049774,6.92217573 Z" id="Shape"></path>
                    </g>
                    <g id="middle_x5F_stripe_2_" transform="translate(3.909502, 6.259414)" fill="#08BF5B">
                        <path d="M2.13800905,0.214783821 C3.07262443,0.171827057 3.89728507,0.380474198 4.36153846,0.988005579 C3.89728507,0.368200837 3.06040724,-0.0184100418 2.13190045,0.0245467225 C1.19728507,0.0675034868 0.403167421,0.533891213 0,1.19051604 C0.403167421,0.540027894 1.20950226,0.257740586 2.13800905,0.214783821 L2.13800905,0.214783821 Z" id="Shape"></path>
                    </g>
                    <g id="upper_x5F_stripe_2_" transform="translate(0.183258, 1.779637)" fill="#08BF5B">
                        <path d="M1.47217195,1.68758717 C2.4800905,0.6013947 3.64683258,-0.079776848 4.85022624,0.0981868898 C3.64072398,-0.0859135286 2.26628959,0.39888424 1.25226244,1.48507671 C0.238235294,2.57126918 -0.146606335,3.98270572 0.122171946,5.18549512 C-0.13438914,3.9888424 0.464253394,2.77377964 1.47217195,1.68758717 L1.47217195,1.68758717 Z" id="Shape"></path>
                    </g>
                    <g id="bottom_x5F_stripe_2_" transform="translate(0.183258, 7.916318)" fill="#08BF5B">
                        <path d="M1.47217195,3.52859135 C2.4800905,4.61478382 3.64683258,5.29595537 4.85022624,5.11799163 C3.64072398,5.30209205 2.26628959,4.81729428 1.25226244,3.73110181 C0.238235294,2.64490934 -0.146606335,1.2334728 0.122171946,0.0306834031 C-0.13438914,1.2334728 0.464253394,2.44239888 1.47217195,3.52859135 L1.47217195,3.52859135 Z" id="Shape"></path>
                    </g>
                </g>
                <ellipse id="m_x5F_orange_x5F_border" stroke="#ED7532" stroke-width="0.916289593" cx="13.7199095" cy="12.5740586" rx="8.82692308" ry="8.86750349"></ellipse>
            </g>
        </g>
    </g>
</svg>