<svg width="27px" height="44px" viewBox="0 0 27 44" version="1.1" xmlns="http://www.w3.org/2000/svg" xmlns:xlink="http://www.w3.org/1999/xlink">
    <g id="Page-1" stroke="none" stroke-width="1" fill="none" fill-rule="evenodd">
        <g id="vegan">
            <g id="Page-1">
                <g id="vegan">
                    <g id="Layer_8">
                        <g id="Group_2_" fill="#F7931E">
                            <path d="M13.5,44 C12.5,39.2 10.8,35.2 8.7,31.4 C7.1,28.6 5.4,26.1 3.7,23.4 C3.1,22.5 2.7,21.6 2.1,20.6 C1,18.7 0.2,16.6 0.2,13.8 C0.3,11.1 1,8.9 2.2,7.1 C4.1,4.2 7.2,1.8 11.4,1.1 C14.8,0.6 18,1.5 20.3,2.8 C22.2,3.9 23.6,5.3 24.7,7.1 C25.8,8.9 26.6,11 26.7,13.8 C26.7,15.2 26.5,16.5 26.2,17.6 C25.9,18.7 25.3,19.6 24.9,20.6 C24,22.5 22.8,24.3 21.7,26 C18.2,31.3 15,36.6 13.5,44 L13.5,44 L13.5,44 L13.5,44 Z" id="Shape_2_"></path>
                        </g>
                        <circle id="Oval" fill="#ED7532" cx="13.2" cy="13.2" r="6.2"></circle>
                    </g>
                </g>
            </g>
        </g>
    </g>
</svg>