<svg width="27px" height="43px" viewBox="0 0 27 43" version="1.1" xmlns="http://www.w3.org/2000/svg" xmlns:xlink="http://www.w3.org/1999/xlink">
    <g id="Page-1" stroke="none" stroke-width="1" fill="none" fill-rule="evenodd">
        <g id="vegan_active">
            <g id="Page-1">
                <g id="vegan">
                    <g id="Layer_8">
                        <g id="Group_2_" fill="#029400">
                            <path d="M13.3,43.0402494 C12.3,38.2402494 10.6,34.2402494 8.5,30.4402494 C6.9,27.6402494 5.2,25.1402494 3.5,22.4402494 C2.9,21.5402494 2.5,20.6402494 1.9,19.6402494 C0.8,17.7402494 0,15.6402494 0,12.8402494 C0.1,10.1402494 0.8,7.94024942 2,6.14024942 C3.9,3.24024942 7,0.840249424 11.2,0.140249424 C14.6,-0.359750576 17.8,0.540249424 20.1,1.84024942 C22,2.94024942 23.4,4.34024942 24.5,6.14024942 C25.6,7.94024942 26.4,10.0402494 26.5,12.8402494 C26.5,14.2402494 26.3,15.5402494 26,16.6402494 C25.7,17.7402494 25.1,18.6402494 24.7,19.6402494 C23.8,21.5402494 22.6,23.3402494 21.5,25.0402494 C18,30.3402494 14.8,35.6402494 13.3,43.0402494 L13.3,43.0402494 L13.3,43.0402494 L13.3,43.0402494 Z" id="Shape_2_"></path>
                        </g>
                        <circle id="Oval" fill="#ED7532" cx="13.2" cy="12.2" r="6.2"></circle>
                    </g>
                </g>
            </g>
        </g>
    </g>
</svg>