<?xml version="1.0" encoding="UTF-8"?>
<svg width="39px" height="65px" viewBox="0 0 39 65" version="1.1" xmlns="http://www.w3.org/2000/svg" xmlns:xlink="http://www.w3.org/1999/xlink">
    <!-- Generator: Sketch 40.3 (33839) - http://www.bohemiancoding.com/sketch -->
    <title>1308001441853739087google maps pin</title>
    <desc>Created with Sketch.</desc>
    <defs></defs>
    <g id="Page-1" stroke="none" stroke-width="1" fill="none" fill-rule="evenodd">
        <g id="1308001441853739087google-maps-pin" transform="translate(1.000000, 1.000000)">
            <g id="Group" stroke="#000000" stroke-width="1.31050767" fill="#FFFFFF">
                <path d="M18.5508883,59.9868595 C17.1809341,53.2465643 14.7655091,47.6374498 11.839894,42.4388076 C9.66982808,38.5826564 7.15591309,35.023353 4.82989589,31.2839787 C4.05342598,30.0356671 3.38332665,28.7169067 2.63721299,27.4213813 C1.14533906,24.8309327 -0.0642464183,21.8274616 0.0126160458,17.931464 C0.0877115568,14.1248642 1.18615568,11.0713459 2.77012321,8.57472255 C5.37528367,4.46840614 9.73902197,1.10167651 15.5941041,0.21690673 C20.3813457,-0.506493506 24.8697249,0.715678867 28.0526437,2.58106257 C30.6535989,4.10543093 32.6677841,6.14164109 34.1988138,8.54139315 C35.7968462,11.0460921 36.8972693,14.0051476 36.989575,17.8648406 C37.0368233,19.8422904 36.7137536,21.6735301 36.2586218,23.1925148 C35.7980124,24.7300236 35.057235,26.015242 34.3981614,27.3880519 C33.1116074,30.0678276 31.4986266,32.5231877 29.8798854,34.98 C25.0583295,42.297804 20.5328443,49.7607556 18.5508883,59.9868595 L18.5508883,59.9868595 Z" id="Shape"></path>
            </g>
            <g id="sight" transform="translate(6.255014, 11.369540)" fill="#0A0A08">
                <path d="M17.347063,8.18181818 C17.347063,5.36215909 15.0582711,3.06818182 12.2449857,3.06818182 C9.43170021,3.06818182 7.14290831,5.36215909 7.14290831,8.18181818 C7.14290831,11.0014773 9.43170021,13.2954545 12.2449857,13.2954545 C15.0582711,13.2954545 17.347063,11.0014773 17.347063,8.18181818 L17.347063,8.18181818 Z M24.4899713,7.72261364 C24.4899713,7.72261364 20.1511648,16.3636364 12.2602919,16.3636364 C4.93370881,16.3636364 0,7.72261364 0,7.72261364 C0,7.72261364 4.53676719,0 12.2602919,0 C20.1113686,0 24.4899713,7.72261364 24.4899713,7.72261364 L24.4899713,7.72261364 Z M15.3062321,8.18181818 C15.3062321,9.87340909 13.9327529,11.25 12.2449857,11.25 C10.5572185,11.25 9.18373926,9.87340909 9.18373926,8.18181818 C9.18373926,6.49022727 10.5572185,5.11363636 12.2449857,5.11363636 C13.9327529,5.11363636 15.3062321,6.49022727 15.3062321,8.18181818 L15.3062321,8.18181818 Z" id="iconmonstr-eye-9"></path>
            </g>
        </g>
    </g>
</svg>